<?xml version="1.0" encoding="UTF-8" standalone="no"?>
<!-- Created with Inkscape (http://www.inkscape.org/) -->

<svg
   xmlns:dc="http://purl.org/dc/elements/1.1/"
   xmlns:cc="http://creativecommons.org/ns#"
   xmlns:rdf="http://www.w3.org/1999/02/22-rdf-syntax-ns#"
   xmlns:svg="http://www.w3.org/2000/svg"
   xmlns="http://www.w3.org/2000/svg"
   xmlns:sodipodi="http://sodipodi.sourceforge.net/DTD/sodipodi-0.dtd"
   xmlns:inkscape="http://www.inkscape.org/namespaces/inkscape"
   version="1.1"
   id="svg1456"
   xml:space="preserve"
   width="368.64511"
   height="326.16803"
   viewBox="0 0 368.64511 326.16803"
   sodipodi:docname="basis-rotation.svg"
   inkscape:version="0.92.5 (2060ec1f9f, 2020-04-08)"><metadata
     id="metadata1462"><rdf:RDF><cc:Work
         rdf:about=""><dc:format>image/svg+xml</dc:format><dc:type
           rdf:resource="http://purl.org/dc/dcmitype/StillImage" /><dc:title></dc:title></cc:Work></rdf:RDF></metadata><defs
     id="defs1460"><clipPath
       clipPathUnits="userSpaceOnUse"
       id="clipPath1474"><path
         d="M 0,-4.076958e-5 H 612 V 791.99996 H 0 Z"
         id="path1472"
         inkscape:connector-curvature="0" /></clipPath></defs><sodipodi:namedview
     pagecolor="#ffffff"
     bordercolor="#666666"
     borderopacity="1"
     objecttolerance="10"
     gridtolerance="10"
     guidetolerance="10"
     inkscape:pageopacity="0"
     inkscape:pageshadow="2"
     inkscape:window-width="1916"
     inkscape:window-height="1036"
     id="namedview1458"
     showgrid="false"
     inkscape:zoom="1.7878788"
     inkscape:cx="183.50195"
     inkscape:cy="223.54159"
     inkscape:window-x="0"
     inkscape:window-y="20"
     inkscape:window-maximized="0"
     inkscape:current-layer="g1464" /><g
     id="g1464"
     inkscape:groupmode="layer"
     inkscape:label="basis-rotation"
     transform="matrix(1.3333333,0,0,-1.3333333,-158.01386,954.80685)"><g
       id="g1466" /><g
       id="g1478"><g
         id="g1480"
         transform="matrix(0.5454546,0,0,-0.5454546,79.96043,726.115)"><path
           d="m 289.1991,67.54265 c 0,3.30765 0,6.6153 0,9.92295 0,3.30765 0,6.6153 0,9.92295 0,3.30765 0,6.6153 0,9.92294 0,3.30761 0,6.61531 0,9.92291 0,3.3077 0,6.6153 0,9.923 0,3.3076 0,6.6153 0,9.9229 0,3.3077 0,6.6153 0,9.923 0,3.3076 0,6.6153 0,9.9229 0,3.3077 0,6.6153 0,9.923 0,3.3076 0,6.6153 0,9.9229 0,3.3077 0,6.6153 0,9.923 0,3.3076 0,6.6153 0,9.9229 0,3.3077 0,6.6153 0,9.923 0,3.3076 0,6.6153 0,9.9229 0,3.3077 0,6.6153 0,9.9229 0,3.3077 0,6.6154 0,9.923 0,3.3077 0,6.6153 0,9.923 0,3.3076 0,6.6153 0,9.9229 0,3.3076 0,6.6153 0,9.9229 0,3.3077 0,6.6153 0,9.923 0,3.3076 0,6.6153 0,9.9229 0,3.3077 0,6.6153 0,9.923 0,3.3076 0,6.6153 0,9.9229 0,3.3077 0,6.6153 0,9.923 0,3.3076 0,6.6153 0,9.9229 0,3.3077 0,6.6153 0,9.923 0,3.3076 0,6.6153 0,9.9229 0,3.3077 0,6.6153 0,9.923 0,3.3076 0,6.6152 0,9.9229 0,3.3077 0,6.6153 0,9.923 0,3.3076 0,6.6153 0,9.9229 0,3.3077 0,6.6153 0,9.9229 0,3.3077 0,6.6154 0,9.923 0,3.3076 0,6.6153 0,9.923 0,3.3076 0,6.6153 0,9.9229 0,3.3076 0,6.6153 0,9.9229 0,3.3077 0,6.6153 0,9.923 0,3.3076 0,6.6153 0,9.923 0,3.3076 0,6.6152 0,9.9229 0,3.3076 0,6.6153 0,9.9229"
           style="fill:none;stroke:#000000;stroke-width:4.67716503;stroke-linecap:round;stroke-linejoin:round;stroke-miterlimit:10;stroke-dasharray:none;stroke-opacity:1"
           id="path1482"
           inkscape:connector-curvature="0" /></g><g
         id="g1484"
         transform="matrix(0.5454546,0,0,-0.5454546,79.96043,726.115)"><path
           d="m 73.04682,263.9646 c 3.28551,0 6.57102,0 9.85653,0 3.28551,0 6.57102,0 9.85652,0 3.28551,0 6.57103,0 9.85653,0 3.2855,0 6.571,0 9.8565,0 3.2855,0 6.5711,0 9.8566,0 3.2855,0 6.571,0 9.8565,0 3.2855,0 6.571,0 9.8565,0 3.2855,0 6.571,0 9.8565,0 3.2856,0 6.5711,0 9.8566,0 3.2855,0 6.571,0 9.8565,0 3.2855,0 6.571,0 9.8565,0 3.2855,0 6.571,0 9.8565,0 3.2856,0 6.5711,0 9.8566,0 3.2855,0 6.571,0 9.8565,0 3.2855,0 6.571,0 9.8565,0 3.2855,0 6.5711,0 9.8566,0 3.2855,0 6.571,0 9.8565,0 3.2855,0 6.571,0 9.8565,0 3.2855,0 6.571,0 9.8566,0 3.2855,0 6.571,0 9.8565,0 3.2855,0 6.571,0 9.8565,0 3.2855,0 6.571,0 9.8565,0 3.2856,0 6.5711,0 9.8566,0 3.2855,0 6.571,0 9.8565,0 3.2855,0 6.571,0 9.8565,0 3.2855,0 6.5711,0 9.8566,0 3.2855,0 6.571,0 9.8565,0 3.2855,0 6.571,0 9.8565,0 3.2855,0 6.571,0 9.8565,0 3.2855,0 6.5711,0 9.8566,0 3.2855,0 6.571,0 9.8565,0 3.2855,0 6.571,0 9.8565,0 3.2856,0 6.5711,0 9.8566,0 3.2855,0 6.571,0 9.8565,0 3.2855,0 6.571,0 9.8565,0 3.2855,0 6.571,0 9.8565,0 3.2856,0 6.5711,0 9.8566,0 3.2855,0 6.571,0 9.8565,0 3.2855,0 6.571,0 9.8565,0 3.2855,0 6.5711,0 9.8566,0 3.2855,0 6.571,0 9.8565,0 3.2855,0 6.571,0 9.8565,0 3.2855,0 6.571,0 9.8565,0"
           style="fill:none;stroke:#000000;stroke-width:4.67716503;stroke-linecap:round;stroke-linejoin:round;stroke-miterlimit:10;stroke-dasharray:none;stroke-opacity:1"
           id="path1486"
           inkscape:connector-curvature="0" /></g><g
         id="g1488"
         transform="matrix(0.5454546,0,0,-0.5454546,-42.77178,790.2271)"><path
           d="m 745.4379,368.9506 c -0.3628,0.2991 -0.4579,0.9259 -0.2853,1.8804 0.115,0.636 0.2178,1.4399 0.3086,2.4116 0.0907,0.9716 0.1495,2.5525 0.1762,4.7427 0.0267,2.1902 0.0402,4.0848 0.0405,5.6839 2e-4,1.5991 -0.0346,3.5263 -0.1047,5.7816 -0.07,2.2553 -0.106,4.0002 -0.1079,5.2345 -0.002,1.2344 0.2191,1.5298 0.6631,0.8863"
           style="fill:none;stroke:#000000;stroke-width:4.67716503;stroke-linecap:round;stroke-linejoin:round;stroke-miterlimit:10;stroke-dasharray:none;stroke-opacity:1"
           id="path1490"
           inkscape:connector-curvature="0" /></g><g
         id="g1492"
         transform="matrix(0.5454546,0,0,-0.5454546,-42.77178,790.2271)"><path
           d="m 761.9824,380.9587 c -0.4743,0.5389 -0.8113,1.08 -1.011,1.6233 -0.135,0.3673 -0.2416,0.8031 -0.3199,1.3073 -0.0783,0.5042 -0.1226,1.361 -0.1331,2.5704 -0.0105,1.2094 0.0974,2.0776 0.3238,2.6045 0.2264,0.527 0.5375,0.9718 0.9334,1.3345 0.3959,0.3626 0.848,0.6484 1.3561,0.8575 0.5081,0.209 1.0541,0.3417 1.6382,0.3982 0.5841,0.0565 1.1891,0.0621 1.815,0.017 0.6259,-0.0452 1.2521,-0.2225 1.8784,-0.5319 0.6264,-0.3094 1.2375,-0.7133 1.8334,-1.2116 0.5959,-0.4985 1.1179,-1.0241 1.566,-1.577 0.4481,-0.5529 0.8412,-1.1466 1.1793,-1.7811 0.3381,-0.6345 0.5965,-1.3316 0.775,-2.0912 0.1786,-0.7595 0.2844,-1.5406 0.3175,-2.3432 0.033,-0.8025 0.004,-1.5819 -0.0883,-2.3379 -0.0919,-0.7561 -0.3044,-1.4615 -0.6373,-2.1163 -0.333,-0.6549 -0.7275,-1.2183 -1.1836,-1.6903 -0.4561,-0.472 -0.964,-0.8281 -1.5239,-1.0684 -0.5598,-0.2403 -1.1439,-0.3724 -1.7522,-0.3965 -0.6083,-0.024 -1.2018,0.0111 -1.7807,0.1052 -0.5788,0.0941 -1.0915,0.2907 -1.5379,0.5897 -0.4464,0.2991 -0.8118,0.6338 -1.0964,1.0041 -0.2846,0.3704 -0.4507,0.7367 -0.4982,1.0989 -0.0687,0.5232 0.2247,1.1379 0.8801,1.844"
           style="fill:none;stroke:#000000;stroke-width:4.67716503;stroke-linecap:round;stroke-linejoin:round;stroke-miterlimit:10;stroke-dasharray:none;stroke-opacity:1"
           id="path1494"
           inkscape:connector-curvature="0" /></g><g
         id="g1496"
         transform="matrix(0.5454546,0,0,-0.5454546,-42.77178,790.2271)"><path
           d="m 782.1813,367.7071 c -0.4288,0 -0.6513,0 -0.6675,0 l -0.008,2e-4 0.01,9e-4 c 0.0124,8e-4 0.1357,0.008 0.37,0.0229 0.2343,0.0145 0.6419,0.1831 1.2229,0.5059 0.5809,0.3228 1.2992,0.7775 2.1548,1.364 0.8556,0.5866 1.8101,1.2756 2.8634,2.067 1.0534,0.7914 2.3333,1.6994 3.8396,2.7241 1.5064,1.0246 2.8194,1.9643 3.939,2.8191 1.1197,0.8547 1.8926,1.4705 2.3186,1.8474 0.4261,0.3768 0.7728,0.7391 1.0401,1.0867 0.2673,0.3476 0.4791,0.6989 0.6354,1.0537 0.1562,0.3549 0.2618,0.966 0.3167,1.8333 0.0549,0.8672 -0.0469,1.5584 -0.3054,2.0735 -0.2585,0.515 -0.6121,1.088 -1.0608,1.7187 -0.4487,0.6308 -1.6397,2.1288 -3.573,4.494 -1.9334,2.3652 -3.4073,4.2839 -4.4219,5.756 -1.0146,1.4722 -1.6328,2.4184 -1.8546,2.8387 -0.2219,0.4204 -0.3515,0.7405 -0.3889,0.9603 -0.0374,0.2199 0.0391,0.3485 0.2297,0.3857 0.271,0.0529 1.2087,-0.512 2.8132,-1.6947"
           style="fill:none;stroke:#000000;stroke-width:4.67716503;stroke-linecap:round;stroke-linejoin:round;stroke-miterlimit:10;stroke-dasharray:none;stroke-opacity:1"
           id="path1498"
           inkscape:connector-curvature="0" /></g><g
         id="g1500"
         transform="matrix(0.5454546,0,0,-0.5454546,5.540387,780.9192)"><path
           d="m 408.428,121.2705 c -0.1438,1.0445 -0.1826,2.3545 -0.1164,3.9298 0.0663,1.5754 0.1344,2.9689 0.2042,4.1805 0.0699,1.2117 0.1427,2.973 0.2186,5.2841 0.0759,2.3111 0.1242,4.6094 0.145,6.8951 0.0207,2.2857 0.015,3.8476 -0.0171,4.6858 -0.0322,0.8382 -0.0491,1.2794 -0.0508,1.3236 -0.002,0.0441 -5e-4,0.0526 0.004,0.0253 0.004,-0.0273 0.0448,-0.2999 0.1222,-0.8178 0.1124,-0.7513 0.5179,-1.9267 1.2168,-3.5262"
           style="fill:none;stroke:#000000;stroke-width:4.67716503;stroke-linecap:round;stroke-linejoin:round;stroke-miterlimit:10;stroke-dasharray:none;stroke-opacity:1"
           id="path1502"
           inkscape:connector-curvature="0" /></g><g
         id="g1504"
         transform="matrix(0.5454546,0,0,-0.5454546,5.540387,780.9192)"><path
           d="m 416.9326,131.8495 c 0.6886,-0.9091 1.6221,-1.9078 2.8007,-2.9961 0.7696,-0.7107 1.3191,-1.257 1.6483,-1.6387 0.3292,-0.3818 0.7038,-0.8705 1.124,-1.4662 0.42,-0.5957 0.765,-1.0214 1.0349,-1.2772 0.2698,-0.2557 0.4756,-0.2474 0.6172,0.0251 0.1417,0.2725 0.2238,1.2122 0.2464,2.8191 0.0226,1.6069 0.034,4.6786 0.0342,9.2151 2e-4,4.5366 0.0231,7.1324 0.0688,7.7873 0.0456,0.655 0.0731,1.0496 0.0825,1.184 0.009,0.1344 0.0287,0.1503 0.058,0.0478 0.0293,-0.1026 0.1154,-0.4037 0.2583,-0.9035 0.2056,-0.7195 0.7958,-2.2444 1.7706,-4.5746"
           style="fill:none;stroke:#000000;stroke-width:4.67716503;stroke-linecap:round;stroke-linejoin:round;stroke-miterlimit:10;stroke-dasharray:none;stroke-opacity:1"
           id="path1506"
           inkscape:connector-curvature="0" /></g><g
         id="g1508"
         transform="matrix(0.5454546,0,0,-0.5454546,5.540387,780.9192)"><path
           d="m 433.1586,121.329 c 0.5967,-0.1936 1.7384,-0.1302 3.4251,0.1902 1.0514,0.1997 2.203,0.5114 3.4549,0.9351 1.2518,0.4237 2.1852,0.759 2.8002,1.0058 0.6149,0.2469 1.4413,0.6374 2.4791,1.1717 1.0378,0.5342 1.9961,1.1058 2.8748,1.7146 0.8788,0.6089 1.4871,1.0543 1.8251,1.3365 0.3379,0.2821 0.6551,0.5933 0.9514,0.9335 0.2963,0.3402 0.5139,0.7429 0.6529,1.2082 0.1389,0.4652 0.1924,0.8445 0.1604,1.138 -0.032,0.2934 -0.2649,0.8292 -0.6989,1.6074 -0.4339,0.7782 -1.3618,2.3048 -2.7837,4.5796 -1.4219,2.2749 -2.3506,3.7808 -2.7861,4.5175 -0.4356,0.7368 -0.9326,1.654 -1.491,2.7518 -0.5585,1.0978 -0.9389,1.941 -1.1413,2.5297 -0.2023,0.5888 -0.3154,1.0154 -0.3391,1.2799 -0.0333,0.3707 0.3069,0.4788 1.0206,0.3242"
           style="fill:none;stroke:#000000;stroke-width:4.67716503;stroke-linecap:round;stroke-linejoin:round;stroke-miterlimit:10;stroke-dasharray:none;stroke-opacity:1"
           id="path1510"
           inkscape:connector-curvature="0" /></g><g
         id="g1512"
         transform="matrix(0.5454546,0,0,-0.5454546,0,792)"><path
           d="m 566.7159,234.6892 c -2.1237,2.506 -4.2474,5.012 -6.3711,7.518 -2.1236,2.506 -4.2473,5.012 -6.371,7.518 -2.1237,2.506 -4.2475,5.012 -6.3712,7.518 -2.1237,2.506 -4.2474,5.012 -6.3711,7.518 -2.1237,2.506 -4.2474,5.012 -6.3711,7.518 -2.1237,2.506 -4.2474,5.012 -6.3711,7.518 -2.1237,2.506 -4.2474,5.012 -6.3711,7.518 -2.1237,2.506 -4.2474,5.0121 -6.3711,7.5181 -2.1237,2.506 -4.2474,5.012 -6.3711,7.518 -2.1237,2.506 -4.2474,5.012 -6.3711,7.518 -2.1237,2.506 -4.2474,5.012 -6.3711,7.518 -2.1238,2.506 -4.2475,5.012 -6.3712,7.518 -2.1237,2.506 -4.2474,5.012 -6.3711,7.518 -2.1237,2.506 -4.2474,5.012 -6.3711,7.518 -2.1237,2.506 -4.2474,5.012 -6.3711,7.5181 -2.1237,2.506 -4.2474,5.012 -6.3711,7.518 -2.1237,2.506 -4.2474,5.012 -6.3711,7.518 -2.1237,2.506 -4.2474,5.012 -6.3711,7.518 -2.1237,2.506 -4.2474,5.012 -6.3711,7.518 -2.1237,2.506 -4.2474,5.012 -6.3711,7.518 -2.1237,2.506 -4.2474,5.012 -6.3711,7.518 -2.1237,2.506 -4.2474,5.012 -6.3711,7.518 -2.1237,2.506 -4.2474,5.012 -6.3711,7.518 -2.1237,2.506 -4.2474,5.012 -6.3711,7.518 -2.1238,2.506 -4.2475,5.012 -6.3712,7.5181 -2.1237,2.506 -4.2474,5.012 -6.3711,7.518 -2.1237,2.506 -4.2474,5.012 -6.3711,7.518 -2.1237,2.506 -4.2474,5.012 -6.3711,7.518 -2.1237,2.506 -4.2474,5.012 -6.3711,7.518 -2.1237,2.506 -4.2474,5.012 -6.3711,7.518 -2.1237,2.506 -4.2474,5.012 -6.3711,7.518 -2.1237,2.506 -4.2474,5.012 -6.3711,7.518 -2.1237,2.506 -4.2474,5.012 -6.3711,7.518 -2.1237,2.506 -4.2474,5.0121 -6.3711,7.5181 -2.1237,2.506 -4.2474,5.0119 -6.3711,7.5179 -2.1237,2.506 -4.2474,5.012 -6.3712,7.518 -2.1237,2.506 -4.2474,5.0121 -6.3711,7.5181 -2.1237,2.506 -4.2474,5.012 -6.3711,7.518 -2.1237,2.506 -4.2474,5.012 -6.3711,7.518"
           style="fill:none;stroke:#ff00a2;stroke-width:4.67716503;stroke-linecap:round;stroke-linejoin:round;stroke-miterlimit:10;stroke-dasharray:none;stroke-opacity:1"
           id="path1514"
           inkscape:connector-curvature="0" /></g><g
         id="g1516"
         transform="matrix(0.5454546,0,0,-0.5454546,-20.83185,778.0382)"><path
           d="m 620.1014,171.8436 v 25.5075"
           style="fill:none;stroke:#ff00a2;stroke-width:4.67716503;stroke-linecap:round;stroke-linejoin:round;stroke-miterlimit:10;stroke-dasharray:none;stroke-opacity:1"
           id="path1518"
           inkscape:connector-curvature="0" /></g><g
         id="g1520"
         transform="matrix(0.5454546,0,0,-0.5454546,-20.83185,778.0382)"><path
           d="m 631.9919,183.1916 c 5.6271,1.3902 11.3406,0.9273 17.1405,-1.3889"
           style="fill:none;stroke:#ff00a2;stroke-width:4.67716503;stroke-linecap:round;stroke-linejoin:round;stroke-miterlimit:10;stroke-dasharray:none;stroke-opacity:1"
           id="path1522"
           inkscape:connector-curvature="0" /></g><g
         id="g1524"
         transform="matrix(0.5454546,0,0,-0.5454546,-20.83185,778.0382)"><path
           d="m 639.9654,174.7568 v 16.3444"
           style="fill:none;stroke:#ff00a2;stroke-width:4.67716503;stroke-linecap:round;stroke-linejoin:round;stroke-miterlimit:10;stroke-dasharray:none;stroke-opacity:1"
           id="path1526"
           inkscape:connector-curvature="0" /></g><g
         id="g1528"
         transform="matrix(0.5454546,0,0,-0.5454546,-20.83185,778.0382)"><path
           d="m 657.0044,168.8288 14.4489,10.8737 -12.5063,18.614"
           style="fill:none;stroke:#ff00a2;stroke-width:4.67716503;stroke-linecap:round;stroke-linejoin:round;stroke-miterlimit:10;stroke-dasharray:none;stroke-opacity:1"
           id="path1530"
           inkscape:connector-curvature="0" /></g><g
         id="g1532"
         transform="matrix(0.5454546,0,0,-0.5454546,0,792)"><path
           d="M 296.151,247.3836 577.7007,516.6855"
           style="fill:none;stroke:#ff00a2;stroke-width:4.67716503;stroke-linecap:round;stroke-linejoin:round;stroke-miterlimit:10;stroke-dasharray:none;stroke-opacity:1"
           id="path1534"
           inkscape:connector-curvature="0" /></g><g
         id="g1536"
         transform="matrix(0.5454546,0,0,-0.5454546,0,792)"><path
           d="m 257.5403,203.9058 c -0.4877,-0.3835 -0.7948,0.0417 -0.9213,1.2757 -0.1266,1.234 -0.208,2.4491 -0.2441,3.6452 -0.0361,1.196 -0.0562,2.9901 -0.0601,5.3823 -0.004,2.3922 0.0168,4.0959 0.0625,5.1113 0.0457,1.0153 0.1314,2.3113 0.2572,3.8879 0.1257,1.5766 0.2183,2.9995 0.2777,4.2687 0.0593,1.2692 0.1144,2.008 0.1653,2.2164 0.0715,0.293 0.7134,-0.5502 1.9257,-2.5296"
           style="fill:none;stroke:#ff00a2;stroke-width:4.67716503;stroke-linecap:round;stroke-linejoin:round;stroke-miterlimit:10;stroke-dasharray:none;stroke-opacity:1"
           id="path1538"
           inkscape:connector-curvature="0" /></g><g
         id="g1540"
         transform="matrix(0.5454546,0,0,-0.5454546,0,792)"><path
           d="m 267.4356,210.8621 c -1.0787,0.2842 -1.7052,0.7907 -1.8797,1.5194 -0.1211,0.5055 -0.1111,0.9076 0.0297,1.2065 0.1409,0.2988 0.405,0.5775 0.7924,0.8361 0.3874,0.2585 0.8594,0.4794 1.4162,0.6628 0.5568,0.1834 1.4853,0.4129 2.7856,0.6887 1.3003,0.2758 2.6148,0.5819 3.9435,0.9185 1.3286,0.3366 2.3004,0.5713 2.9153,0.7042 0.6149,0.1329 1.3452,0.2478 2.1906,0.3447 1.2329,0.1413 3.0616,0.2526 5.486,0.3336"
           style="fill:none;stroke:#ff00a2;stroke-width:4.67716503;stroke-linecap:round;stroke-linejoin:round;stroke-miterlimit:10;stroke-dasharray:none;stroke-opacity:1"
           id="path1542"
           inkscape:connector-curvature="0" /></g><g
         id="g1544"
         transform="matrix(0.5454546,0,0,-0.5454546,0,792)"><path
           d="m 291.6008,202.937 c -0.4541,-0.1663 -0.5377,-0.0533 -0.251,0.3392 0.2131,0.2916 0.622,0.6329 1.2267,1.0241 0.6048,0.3912 1.5816,0.9624 2.9306,1.7136 1.3489,0.7511 3.1339,1.7153 5.3548,2.8926 2.2209,1.1772 3.6036,1.9727 4.148,2.3865 0.5445,0.4139 0.8989,0.8683 1.0632,1.3632 0.1643,0.495 0.2486,0.9014 0.2528,1.219 0.004,0.3177 -0.0581,0.6779 -0.1872,1.0806 -0.1291,0.4027 -0.4702,1.0647 -1.0234,1.986 -0.5532,0.9213 -1.6057,2.374 -3.1577,4.358 -1.5519,1.984 -3.0233,3.8956 -4.4142,5.735 -1.3909,1.8394 -2.2368,3.0187 -2.5376,3.5379 -0.3008,0.5192 -0.4065,0.8654 -0.317,1.0388 0.1274,0.2466 0.8208,0.3468 2.0802,0.3006"
           style="fill:none;stroke:#ff00a2;stroke-width:4.67716503;stroke-linecap:round;stroke-linejoin:round;stroke-miterlimit:10;stroke-dasharray:none;stroke-opacity:1"
           id="path1546"
           inkscape:connector-curvature="0" /></g><g
         id="g1548"
         transform="matrix(0.5454546,0,0,-0.5454546,0,792)"><path
           d="m 550.7332,265.8636 c 0.1808,0.3612 0.4196,0.691 0.7165,0.9894 0.454,0.4563 0.7335,0.8825 0.8384,1.2786"
           style="fill:none;stroke:#ff00a2;stroke-width:4.67716503;stroke-linecap:round;stroke-linejoin:round;stroke-miterlimit:10;stroke-dasharray:none;stroke-opacity:1"
           id="path1550"
           inkscape:connector-curvature="0" /></g><g
         id="g1552"
         transform="matrix(0.5454546,0,0,-0.5454546,0,792)"><path
           d="m 559.8757,272.9393 c -0.0221,0.1653 0.1514,0.3775 0.5205,0.6365 0.2428,0.1704 0.4906,0.4077 0.7433,0.7121 0.3733,0.4496 0.7646,1.0137 1.1737,1.6923"
           style="fill:none;stroke:#ff00a2;stroke-width:4.67716503;stroke-linecap:round;stroke-linejoin:round;stroke-miterlimit:10;stroke-dasharray:none;stroke-opacity:1"
           id="path1554"
           inkscape:connector-curvature="0" /></g><g
         id="g1556"
         transform="matrix(0.5454546,0,0,-0.5454546,0,792)"><path
           d="m 570.8073,281.7334 c 0.587,0.2656 1.1295,0.5804 1.6274,0.9442 0.333,0.2433 0.603,0.4813 0.8098,0.7139 0.2068,0.2325 0.4003,0.5024 0.5803,0.8096 0.2686,0.4584 0.6041,0.8871 1.0066,1.2862"
           style="fill:none;stroke:#ff00a2;stroke-width:4.67716503;stroke-linecap:round;stroke-linejoin:round;stroke-miterlimit:10;stroke-dasharray:none;stroke-opacity:1"
           id="path1558"
           inkscape:connector-curvature="0" /></g><g
         id="g1560"
         transform="matrix(0.5454546,0,0,-0.5454546,0,792)"><path
           d="m 582.9489,290.5503 c 0.4937,0.7287 1.1017,1.4406 1.8239,2.1356 1.1693,1.1252 1.9515,1.9221 2.3465,2.3905"
           style="fill:none;stroke:#ff00a2;stroke-width:4.67716503;stroke-linecap:round;stroke-linejoin:round;stroke-miterlimit:10;stroke-dasharray:none;stroke-opacity:1"
           id="path1562"
           inkscape:connector-curvature="0" /></g><g
         id="g1564"
         transform="matrix(0.5454546,0,0,-0.5454546,0,792)"><path
           d="m 593.47,300.2693 c 0.037,0.2719 0.2131,0.5512 0.5282,0.8381 0.2079,0.1893 0.4858,0.3808 0.8339,0.5747 0.5179,0.2884 1.0374,0.6498 1.5585,1.084"
           style="fill:none;stroke:#ff00a2;stroke-width:4.67716503;stroke-linecap:round;stroke-linejoin:round;stroke-miterlimit:10;stroke-dasharray:none;stroke-opacity:1"
           id="path1566"
           inkscape:connector-curvature="0" /></g><g
         id="g1568"
         transform="matrix(0.5454546,0,0,-0.5454546,0,792)"><path
           d="m 544.8597,259.7813 c 0.128,-0.5543 0.0913,-0.9205 -0.1101,-1.0987 -0.1405,-0.1243 -0.3926,-0.2083 -0.7563,-0.2519 -0.3637,-0.0437 -0.6606,0.0126 -0.8908,0.1689 -0.2301,0.1563 -0.4582,0.3729 -0.6842,0.6499 -0.226,0.2769 -0.3852,0.5345 -0.4777,0.7728 -0.0926,0.2383 -0.1362,0.5436 -0.131,0.9159 0.005,0.3723 0.0547,0.6299 0.1485,0.773 0.0938,0.1431 0.2908,0.3239 0.5909,0.5424 0.3,0.2185 0.6357,0.391 1.007,0.5176 0.3714,0.1265 0.7346,0.2026 1.0899,0.2281 0.3552,0.0256 0.6139,0.0213 0.776,-0.0128 0.1621,-0.0341 0.384,-0.1711 0.6657,-0.4112 0.2816,-0.2401 0.519,-0.5523 0.712,-0.9368 0.1931,-0.3844 0.3261,-0.7731 0.399,-1.1661 0.073,-0.3931 0.1108,-0.7671 0.1133,-1.1222 0.002,-0.3551 -0.0219,-0.6005 -0.0734,-0.7362 -0.0514,-0.1358 -0.1896,-0.265 -0.4143,-0.3876 -0.2248,-0.1227 -0.5333,-0.182 -0.9254,-0.1779 -0.3922,0.004 -0.7002,0.0527 -0.9239,0.1458 -0.2238,0.0932 -0.5767,0.2982 -1.0585,0.615 -0.4818,0.3167 -0.815,0.5603 -0.9994,0.7307 -0.1845,0.1705 -0.3444,0.3434 -0.4796,0.5189 -0.1352,0.1755 -0.2393,0.3604 -0.3122,0.5548 -0.0729,0.1945 -0.1094,0.4612 -0.1095,0.8002 -1e-4,0.339 0.0586,0.5756 0.1761,0.7098 0.1174,0.1341 0.2711,0.2488 0.461,0.3441 0.1899,0.0952 0.3953,0.1727 0.6162,0.2324 0.2208,0.0597 0.5813,0.0986 1.0815,0.1168 0.5,0.0182 0.8637,-0.0109 1.0908,-0.0873 0.2271,-0.0764 0.4312,-0.1779 0.6123,-0.3043 0.181,-0.1265 0.34,-0.2964 0.4768,-0.5097 0.1369,-0.2133 0.2329,-0.4481 0.2882,-0.7044 0.0552,-0.2563 0.0856,-0.5306 0.0911,-0.8229 0.006,-0.2923 -0.0419,-0.5877 -0.1422,-0.8863 -0.1005,-0.2985 -0.2566,-0.5802 -0.4685,-0.8451 -0.212,-0.2648 -0.4581,-0.4897 -0.7386,-0.6745 -0.2805,-0.1849 -0.6158,-0.321 -1.0061,-0.4081 -0.3903,-0.0872 -0.7939,-0.1351 -1.211,-0.1438 -0.417,-0.009 -0.8483,0.0419 -1.2937,0.152 -0.4456,0.11 -0.8707,0.317 -1.2754,0.6211 -0.5806,0.4361 -0.9152,1.6454 -1.0038,3.6278"
           style="fill:none;stroke:#ff00a2;stroke-width:4.67716503;stroke-linecap:round;stroke-linejoin:round;stroke-miterlimit:10;stroke-dasharray:none;stroke-opacity:1"
           id="path1570"
           inkscape:connector-curvature="0" /></g><g
         id="g1572"
         transform="matrix(0.5454546,0,0,-0.5454546,0,792)"><path
           d="m 594.2213,317.3424 c -0.2628,0.0435 -1.1239,0.7167 -2.5833,2.0197"
           style="fill:none;stroke:#ff00a2;stroke-width:4.67716503;stroke-linecap:round;stroke-linejoin:round;stroke-miterlimit:10;stroke-dasharray:none;stroke-opacity:1"
           id="path1574"
           inkscape:connector-curvature="0" /></g><g
         id="g1576"
         transform="matrix(0.5454546,0,0,-0.5454546,0,792)"><path
           d="m 583.8537,328.9622 c -0.4666,0.2771 -0.8904,0.7688 -1.2716,1.4751 -0.2505,0.4641 -0.4392,0.8211 -0.5664,1.071 -0.1861,0.366 -0.5066,0.8079 -0.9614,1.3258"
           style="fill:none;stroke:#ff00a2;stroke-width:4.67716503;stroke-linecap:round;stroke-linejoin:round;stroke-miterlimit:10;stroke-dasharray:none;stroke-opacity:1"
           id="path1578"
           inkscape:connector-curvature="0" /></g><g
         id="g1580"
         transform="matrix(0.5454546,0,0,-0.5454546,0,792)"><path
           d="m 575.3023,339.7829 c -0.6149,0.5349 -1.2317,1.1934 -1.8504,1.9755 -0.6187,0.7821 -1.0736,1.3333 -1.3646,1.6538 -0.4444,0.4892 -0.8588,0.8862 -1.2434,1.1911"
           style="fill:none;stroke:#ff00a2;stroke-width:4.67716503;stroke-linecap:round;stroke-linejoin:round;stroke-miterlimit:10;stroke-dasharray:none;stroke-opacity:1"
           id="path1582"
           inkscape:connector-curvature="0" /></g><g
         id="g1584"
         transform="matrix(0.5454546,0,0,-0.5454546,0,792)"><path
           d="m 561.7161,354.6345 c -0.6293,0.6674 -1.4318,1.5684 -2.4073,2.703"
           style="fill:none;stroke:#ff00a2;stroke-width:4.67716503;stroke-linecap:round;stroke-linejoin:round;stroke-miterlimit:10;stroke-dasharray:none;stroke-opacity:1"
           id="path1586"
           inkscape:connector-curvature="0" /></g><g
         id="g1588"
         transform="matrix(0.5454546,0,0,-0.5454546,0,792)"><path
           d="m 550.1235,365.9949 c -1.4289,1.2984 -2.4873,2.3756 -3.1751,3.2316"
           style="fill:none;stroke:#ff00a2;stroke-width:4.67716503;stroke-linecap:round;stroke-linejoin:round;stroke-miterlimit:10;stroke-dasharray:none;stroke-opacity:1"
           id="path1590"
           inkscape:connector-curvature="0" /></g><g
         id="g1592"
         transform="matrix(0.5454546,0,0,-0.5454546,0,792)"><path
           d="m 540.2564,376.8525 c -0.3468,0.206 -0.6713,0.4528 -0.9735,0.7404 -0.4724,0.4495 -0.7719,0.8275 -0.8986,1.1338"
           style="fill:none;stroke:#ff00a2;stroke-width:4.67716503;stroke-linecap:round;stroke-linejoin:round;stroke-miterlimit:10;stroke-dasharray:none;stroke-opacity:1"
           id="path1594"
           inkscape:connector-curvature="0" /></g><g
         id="g1596"
         transform="matrix(0.5454546,0,0,-0.5454546,0,792)"><path
           d="m 533.016,385.5025 c -0.2559,0.072 -0.7354,0.6203 -1.4384,1.6449"
           style="fill:none;stroke:#ff00a2;stroke-width:4.67716503;stroke-linecap:round;stroke-linejoin:round;stroke-miterlimit:10;stroke-dasharray:none;stroke-opacity:1"
           id="path1598"
           inkscape:connector-curvature="0" /></g><g
         id="g1600"
         transform="matrix(0.5454546,0,0,-0.5454546,0,792)"><path
           d="m 523.5748,395.8844 c -0.4099,0.3153 -0.9328,0.8325 -1.5686,1.5516 -0.4064,0.4596 -0.8243,0.9077 -1.2538,1.3442"
           style="fill:none;stroke:#ff00a2;stroke-width:4.67716503;stroke-linecap:round;stroke-linejoin:round;stroke-miterlimit:10;stroke-dasharray:none;stroke-opacity:1"
           id="path1602"
           inkscape:connector-curvature="0" /></g><g
         id="g1604"
         transform="matrix(0.5454546,0,0,-0.5454546,0,792)"><path
           d="m 514.2495,406.7229 c -0.4045,0.2348 -0.9983,0.8514 -1.7814,1.8499"
           style="fill:none;stroke:#ff00a2;stroke-width:4.67716503;stroke-linecap:round;stroke-linejoin:round;stroke-miterlimit:10;stroke-dasharray:none;stroke-opacity:1"
           id="path1606"
           inkscape:connector-curvature="0" /></g><g
         id="g1608"
         transform="matrix(0.5454546,0,0,-0.5454546,0,792)"><path
           d="m 504.9377,417.7691 c -0.7119,0.8099 -1.331,1.5795 -1.8573,2.309 -0.523,0.7252 -1.1775,1.5589 -1.9633,2.5011"
           style="fill:none;stroke:#ff00a2;stroke-width:4.67716503;stroke-linecap:round;stroke-linejoin:round;stroke-miterlimit:10;stroke-dasharray:none;stroke-opacity:1"
           id="path1610"
           inkscape:connector-curvature="0" /></g><g
         id="g1612"
         transform="matrix(0.5454546,0,0,-0.5454546,0,792)"><path
           d="m 495.6243,429.6407 c -0.3541,0.3726 -0.7082,0.7452 -1.0622,1.1178"
           style="fill:none;stroke:#ff00a2;stroke-width:4.67716503;stroke-linecap:round;stroke-linejoin:round;stroke-miterlimit:10;stroke-dasharray:none;stroke-opacity:1"
           id="path1614"
           inkscape:connector-curvature="0" /></g><g
         id="g1616"
         transform="matrix(0.5454546,0,0,-0.5454546,0,792)"><path
           d="m 491.2765,433.0734 c -0.2251,-0.0832 -0.5143,-0.1263 -0.8676,-0.1293 -0.2306,-0.002 -0.4074,0.0142 -0.5302,0.0485 -0.1228,0.0343 -0.3053,0.1666 -0.5474,0.3969 -0.2421,0.2304 -0.4669,0.5097 -0.6744,0.8381 -0.2075,0.3284 -0.3496,0.5821 -0.4263,0.7613 -0.0767,0.1792 -0.1335,0.437 -0.1702,0.7736 -0.0368,0.3365 -0.0424,0.5762 -0.017,0.7189 0.0254,0.1428 0.1746,0.3155 0.4475,0.5181 0.273,0.2026 0.5989,0.3443 0.9779,0.425 0.379,0.0807 0.6712,0.1222 0.8768,0.1243 0.2055,0.002 0.4145,-0.0428 0.627,-0.135 0.2126,-0.0922 0.4057,-0.2181 0.5793,-0.3779 0.1737,-0.1597 0.3365,-0.3359 0.4884,-0.5288 0.152,-0.1929 0.3202,-0.5067 0.5045,-0.9414 0.1843,-0.4347 0.3021,-0.7591 0.3533,-0.9733 0.0511,-0.2142 0.0839,-0.5417 0.0982,-0.9824 0.0144,-0.4408 -0.0121,-0.7468 -0.0792,-0.9181 -0.0672,-0.1713 -0.1585,-0.3236 -0.2741,-0.4569 -0.1156,-0.1333 -0.2465,-0.2489 -0.3926,-0.3467 -0.1462,-0.0978 -0.2978,-0.1688 -0.4549,-0.2129 -0.1571,-0.0441 -0.3901,-0.0685 -0.6989,-0.0734 -0.3089,-0.005 -0.543,0.0349 -0.7023,0.1194 -0.1594,0.0844 -0.3183,0.1982 -0.4767,0.3413 -0.1584,0.1431 -0.3705,0.4328 -0.6361,0.8692 -0.2656,0.4363 -0.4333,0.7676 -0.503,0.9938 -0.0697,0.2262 -0.1089,0.5589 -0.1176,0.9981 -0.009,0.4391 0.0498,0.7404 0.1753,0.9037 0.1256,0.1634 0.3084,0.2995 0.5486,0.4082 0.2401,0.1088 0.6428,0.1822 1.208,0.2203 0.5651,0.0381 0.9834,0.0283 1.2549,-0.0295 0.2714,-0.0577 0.5088,-0.1515 0.7121,-0.2814 0.2033,-0.1298 0.3863,-0.2897 0.5491,-0.4796 0.1629,-0.1899 0.299,-0.4079 0.4083,-0.6539 0.1093,-0.2461 0.1862,-0.5028 0.2308,-0.7704 0.0446,-0.2675 0.0691,-0.5532 0.0736,-0.8572 0.004,-0.304 -0.0347,-0.6177 -0.1174,-0.9412 -0.0827,-0.3235 -0.2083,-0.64 -0.3769,-0.9496 -0.1686,-0.3095 -0.3701,-0.5841 -0.6047,-0.8236 -0.2346,-0.2396 -0.4942,-0.4136 -0.7789,-0.522 -0.2848,-0.1085 -0.5839,-0.1681 -0.8974,-0.1789 -0.3135,-0.0109 -0.6422,0.0663 -0.9863,0.2316 -0.3441,0.1652 -0.6926,0.3987 -1.0457,0.7004 -0.3531,0.3016 -0.669,0.6154 -0.9477,0.9413 -0.2788,0.3259 -0.4954,0.6635 -0.65,1.0129 -0.1545,0.3495 -0.2395,0.7186 -0.255,1.1073 -0.0221,0.5578 0.5261,1.3845 1.6446,2.4802"
           style="fill:none;stroke:#ff00a2;stroke-width:4.67716503;stroke-linecap:round;stroke-linejoin:round;stroke-miterlimit:10;stroke-dasharray:none;stroke-opacity:1"
           id="path1618"
           inkscape:connector-curvature="0" /></g><g
         id="g1620"
         transform="matrix(0.5454546,0,0,-0.5454546,0,792)"><path
           d="m 445.0016,381.3664 c 0.3807,0 0.7484,-0.0776 1.1033,-0.2329 0.3549,-0.1553 0.7724,-0.3279 1.2525,-0.518 0.4801,-0.19 1.0029,-0.4206 1.5682,-0.6918 0.5654,-0.2712 1.2268,-0.5709 1.9841,-0.8989 0.7574,-0.328 2.0099,-0.8316 3.7574,-1.5108 1.7476,-0.6793 3.2655,-1.3042 4.5537,-1.8747 1.2882,-0.5705 2.7342,-1.1902 4.3381,-1.8591 1.6039,-0.6689 3.4593,-1.4828 5.5663,-2.4418 2.107,-0.959 3.9477,-1.8326 5.522,-2.6207 1.5744,-0.7881 2.9079,-1.4401 4.0006,-1.9561 1.0926,-0.516 2.4073,-1.1071 3.944,-1.7731 1.5367,-0.6661 2.8433,-1.2521 3.9197,-1.758 1.0765,-0.5059 1.8914,-0.8936 2.4446,-1.1632 0.5531,-0.2696 1.1434,-0.5657 1.7707,-0.8884 0.6273,-0.3227 1.5495,-0.8138 2.7664,-1.4735 1.217,-0.6596 2.1494,-1.1523 2.7973,-1.478 0.6478,-0.3257 1.2733,-0.6316 1.8764,-0.9176 0.6032,-0.2861 1.4314,-0.6652 2.4848,-1.1373 1.0534,-0.4721 1.8379,-0.8163 2.3535,-1.0325 0.5155,-0.2163 1.5693,-0.6946 3.1613,-1.435 1.592,-0.7403 3.215,-1.5372 4.869,-2.3905 1.654,-0.8533 2.7354,-1.4079 3.2441,-1.6639 0.5088,-0.256 1.0191,-0.4971 1.5312,-0.7234 0.512,-0.2262 1.6958,-0.76 3.5515,-1.6014 1.8556,-0.8413 3.2408,-1.4893 4.1556,-1.9438 0.9148,-0.4545 1.8257,-0.9193 2.7329,-1.3944 0.9071,-0.475 1.581,-0.8246 2.0217,-1.0488 0.4406,-0.2242 1.0692,-0.5558 1.8858,-0.9947 0.8166,-0.4389 1.6227,-0.8559 2.4185,-1.2511 0.7957,-0.3951 1.9371,-0.9385 3.4242,-1.63 1.4871,-0.6915 2.6525,-1.2186 3.4963,-1.5814 0.8437,-0.3628 1.9138,-0.8454 3.2102,-1.4478 1.2965,-0.6023 2.5316,-1.189 3.7055,-1.76 1.1738,-0.571 2.298,-1.1402 3.3725,-1.7076 1.0746,-0.5675 2.1858,-1.1445 3.3338,-1.7311 1.1479,-0.5867 2.2742,-1.1554 3.3789,-1.7061 1.1046,-0.5508 1.8262,-0.9063 2.1648,-1.0666 0.3385,-0.1603 1.0743,-0.5411 2.2076,-1.1426 1.1333,-0.6015 2.1489,-1.1286 3.0468,-1.5812 0.8979,-0.4527 1.8396,-0.9385 2.8249,-1.4573 0.9854,-0.5189 2.0005,-1.0319 3.0455,-1.539 1.045,-0.5071 1.8112,-0.8808 2.2986,-1.1211 0.4874,-0.2404 1.8139,-0.8763 3.9796,-1.9078 2.1657,-1.0316 3.9998,-1.8898 5.5024,-2.5747 1.5026,-0.6849 2.5728,-1.1677 3.2104,-1.4484 0.6377,-0.2807 1.3783,-0.6225 2.2218,-1.0254 0.8435,-0.4029 1.7366,-0.8162 2.6793,-1.2399 0.9426,-0.4237 1.6339,-0.7349 2.0739,-0.9334 0.44,-0.1986 0.8203,-0.3988 1.1409,-0.6008 0.4335,-0.2731 0.3623,-0.411 -0.2139,-0.4137"
           style="fill:none;stroke:#0000d5;stroke-width:4.67716503;stroke-linecap:round;stroke-linejoin:round;stroke-miterlimit:10;stroke-dasharray:none;stroke-opacity:1"
           id="path1622"
           inkscape:connector-curvature="0" /></g><g
         id="g1624"
         transform="matrix(0.5454546,0,0,-0.5454546,0,792)"><path
           d="m 588.9526,306.9366 c -0.0376,-0.1231 0.0752,-0.1528 0.3385,-0.0889 0.2633,0.0638 0.7279,0.2368 1.3936,0.5189 0.6658,0.2821 1.3629,0.57 2.0914,0.8637 0.7284,0.2936 1.4229,0.5694 2.0834,0.8273 0.6605,0.258 1.0404,0.4433 1.1395,0.556 0.0992,0.1126 0.1453,0.2783 0.1382,0.4969 -0.007,0.2186 -0.126,0.5962 -0.3569,1.1327 -0.2309,0.5365 -0.5345,1.1938 -0.9105,1.9718 -0.3761,0.7779 -0.7421,1.6168 -1.098,2.5164 -0.3559,0.8997 -0.6425,1.7309 -0.8598,2.4937 -0.2173,0.7628 -0.3424,1.3074 -0.3751,1.6338 -0.0327,0.3265 -0.05,0.499 -0.0519,0.5175 l -0.003,0.0231 -10e-5,-10e-4 c 0,-0.004 0,-0.0307 0,-0.081 0,-0.0502 0,-0.0914 0,-0.1236"
           style="fill:none;stroke:#0000d5;stroke-width:4.67716503;stroke-linecap:round;stroke-linejoin:round;stroke-miterlimit:10;stroke-dasharray:none;stroke-opacity:1"
           id="path1626"
           inkscape:connector-curvature="0" /></g><g
         id="g1628"
         transform="matrix(0.5454546,0,0,-0.5454546,0,792)"><path
           d="m 612.3892,294.7731 c -0.0345,-0.8516 -0.0114,-1.3453 0.0691,-1.4811 0.0564,-0.0952 0.0927,-0.1565 0.109,-0.184 0.0163,-0.0274 0.0247,0.0364 0.0251,0.1916 5e-4,0.1552 0.002,0.5016 0.003,1.039 0.002,0.5375 -0.003,1.1571 -0.0125,1.859 -0.01,0.7019 -0.0361,1.4536 -0.0786,2.2552 -0.0426,0.8015 -0.07,1.5988 -0.0821,2.3919 -0.0122,0.793 -0.019,1.848 -0.0203,3.1651 -10e-4,1.3171 0.0113,2.3545 0.0378,3.1123 0.0265,0.7577 0.0627,1.3015 0.1087,1.6315 0.046,0.33 0.1095,0.5378 0.1905,0.6236 0.1138,0.1205 0.2919,-0.1484 0.5343,-0.8068"
           style="fill:none;stroke:#0000d5;stroke-width:4.67716503;stroke-linecap:round;stroke-linejoin:round;stroke-miterlimit:10;stroke-dasharray:none;stroke-opacity:1"
           id="path1630"
           inkscape:connector-curvature="0" /></g><g
         id="g1632"
         transform="matrix(0.5454546,0,0,-0.5454546,0,792)"><path
           d="m 618.7792,297.911 c -0.2017,0.0302 -0.3243,-0.0884 -0.3678,-0.3559 -0.0308,-0.1889 -0.0127,-0.3637 0.0543,-0.5243 0.067,-0.1606 0.2801,-0.4259 0.6392,-0.7958 0.359,-0.3698 0.7474,-0.7024 1.1651,-0.9975 0.4176,-0.2952 0.8246,-0.5222 1.2211,-0.6809 0.3965,-0.1588 0.7595,-0.2375 1.089,-0.2362 0.3296,10e-4 0.5528,0.079 0.6697,0.2328 0.1169,0.1539 0.2238,0.3851 0.3205,0.6935 0.0968,0.3085 0.2078,0.8718 0.3331,1.6899 0.1252,0.8181 0.2323,1.4275 0.3213,1.8284 0.0889,0.4008 0.2012,0.7639 0.3368,1.0891 0.1355,0.3252 0.2903,0.5965 0.4641,0.8139 0.1739,0.2173 0.3705,0.4042 0.5898,0.5605 0.2192,0.1564 0.4486,0.2715 0.6883,0.3452 0.2396,0.0738 0.4763,0.1183 0.7101,0.1336 0.2338,0.0153 0.493,0.008 0.7776,-0.0224 0.2846,-0.0301 0.5837,-0.1312 0.8972,-0.3032 0.3135,-0.172 0.6333,-0.384 0.9596,-0.6362 0.3262,-0.2522 0.6779,-0.5586 1.0549,-0.9191 0.377,-0.3605 0.7694,-0.7555 1.1773,-1.185 0.4078,-0.4294 0.7914,-0.8544 1.1508,-1.2749 0.3595,-0.4206 0.7215,-0.8235 1.086,-1.2088 0.3644,-0.3852 0.6995,-0.6896 1.0051,-0.9129 0.3057,-0.2233 0.5787,-0.3673 0.819,-0.4319 0.2404,-0.0646 0.4528,-0.0961 0.6371,-0.0947 0.1844,10e-4 0.3481,0.0736 0.4912,0.2163 0.1431,0.1427 0.3379,0.4379 0.5842,0.8856 0.2463,0.4476 0.4995,0.8553 0.7595,1.2231 0.2599,0.3678 0.5255,0.6647 0.7967,0.8907 0.4198,0.3498 0.7546,0.5181 1.0042,0.505"
           style="fill:none;stroke:#0000d5;stroke-width:4.67716503;stroke-linecap:round;stroke-linejoin:round;stroke-miterlimit:10;stroke-dasharray:none;stroke-opacity:1"
           id="path1634"
           inkscape:connector-curvature="0" /></g><g
         id="g1636"
         transform="matrix(0.5454546,0,0,-0.5454546,0,792)"><path
           d="m 630.7901,291.4214 c -0.3531,0.5482 -0.6101,1.2323 -0.7712,2.0524 -0.1063,0.541 -0.2102,1.166 -0.3119,1.8749 -0.1017,0.7089 -0.2165,1.7814 -0.3445,3.2175 -0.1279,1.4362 -0.2116,2.453 -0.2511,3.0505 -0.0395,0.5975 -0.0741,1.501 -0.104,2.7104 -0.0297,1.2093 -0.054,2.0377 -0.0728,2.485 -0.0188,0.4474 -0.0478,0.905 -0.0869,1.3729 -0.0392,0.4679 0.111,0.7514 0.4506,0.8504"
           style="fill:none;stroke:#0000d5;stroke-width:4.67716503;stroke-linecap:round;stroke-linejoin:round;stroke-miterlimit:10;stroke-dasharray:none;stroke-opacity:1"
           id="path1638"
           inkscape:connector-curvature="0" /></g><g
         id="g1640"
         transform="matrix(0.5454546,0,0,-0.5454546,0,792)"><path
           d="m 645.9088,290.8309 c -0.304,0 -0.0121,0.501 0.8756,1.503 0.8878,1.0021 1.5301,1.703 1.9268,2.1028 0.3967,0.3999 0.8078,0.7914 1.2335,1.1746 0.4256,0.3832 1.0473,0.9006 1.865,1.5522 0.8177,0.6515 1.3757,1.1059 1.6739,1.3631 0.2982,0.2572 0.5632,0.499 0.7949,0.7254 0.2317,0.2264 0.4225,0.4354 0.5723,0.627 0.1499,0.1916 0.2819,0.4437 0.3961,0.7563 0.1143,0.3125 0.1524,0.6563 0.1144,1.0311 -0.0381,0.3749 -0.1304,0.6811 -0.2771,0.9186 -0.1466,0.2374 -0.3361,0.5066 -0.5685,0.8076 -0.2323,0.3009 -0.5115,0.6223 -0.8376,0.9639 -0.326,0.3416 -0.8864,0.8873 -1.6809,1.637 -0.7945,0.7496 -1.3553,1.286 -1.6822,1.6092 -0.3269,0.3232 -0.5948,0.6065 -0.8036,0.8501 -0.2089,0.2435 -0.3574,0.4567 -0.4456,0.6395 -0.1253,0.2597 0.0841,0.5872 0.6283,0.9827"
           style="fill:none;stroke:#0000d5;stroke-width:4.67716503;stroke-linecap:round;stroke-linejoin:round;stroke-miterlimit:10;stroke-dasharray:none;stroke-opacity:1"
           id="path1642"
           inkscape:connector-curvature="0" /></g><g
         id="g1644"
         transform="matrix(0.5454546,0,0,-0.5454546,0,792)"><path
           d="m 592.8148,327.3766 c -0.197,1.3914 -0.2993,3.2604 -0.3069,5.6069"
           style="fill:none;stroke:#000000;stroke-width:4.67716503;stroke-linecap:round;stroke-linejoin:round;stroke-miterlimit:10;stroke-dasharray:none;stroke-opacity:1"
           id="path1646"
           inkscape:connector-curvature="0" /></g><g
         id="g1648"
         transform="matrix(0.5454546,0,0,-0.5454546,0,792)"><path
           d="m 592.4864,338.5444 c -0.0959,0.2894 -0.145,0.9277 -0.1473,1.915 -10e-4,0.6003 0.0215,1.0665 0.0686,1.3984 0.0735,0.5184 0.0598,0.8918 -0.0411,1.1203"
           style="fill:none;stroke:#000000;stroke-width:4.67716503;stroke-linecap:round;stroke-linejoin:round;stroke-miterlimit:10;stroke-dasharray:none;stroke-opacity:1"
           id="path1650"
           inkscape:connector-curvature="0" /></g><g
         id="g1652"
         transform="matrix(0.5454546,0,0,-0.5454546,0,792)"><path
           d="m 592.0453,350.132 c -0.0608,2.4114 -0.0369,4.1063 0.0719,5.0849"
           style="fill:none;stroke:#000000;stroke-width:4.67716503;stroke-linecap:round;stroke-linejoin:round;stroke-miterlimit:10;stroke-dasharray:none;stroke-opacity:1"
           id="path1654"
           inkscape:connector-curvature="0" /></g><g
         id="g1656"
         transform="matrix(0.5454546,0,0,-0.5454546,0,792)"><path
           d="m 592.089,362.7718 c -0.0798,1.3122 0.005,2.4692 0.2543,3.4709"
           style="fill:none;stroke:#000000;stroke-width:4.67716503;stroke-linecap:round;stroke-linejoin:round;stroke-miterlimit:10;stroke-dasharray:none;stroke-opacity:1"
           id="path1658"
           inkscape:connector-curvature="0" /></g><g
         id="g1660"
         transform="matrix(0.5454546,0,0,-0.5454546,0,792)"><path
           d="m 592.06,373.5336 c 0,0.6658 -0.0314,1.3314 -0.0941,1.9967 -0.0628,0.6652 -0.0957,1.2603 -0.099,1.7853 -0.005,0.802 0.0945,1.4607 0.2979,1.976"
           style="fill:none;stroke:#000000;stroke-width:4.67716503;stroke-linecap:round;stroke-linejoin:round;stroke-miterlimit:10;stroke-dasharray:none;stroke-opacity:1"
           id="path1662"
           inkscape:connector-curvature="0" /></g><g
         id="g1664"
         transform="matrix(0.5454546,0,0,-0.5454546,0,792)"><path
           d="m 591.2487,385.7825 c -0.0434,-0.5818 0.003,-0.9721 0.1379,-1.1709 0.0938,-0.1379 0.2117,-0.2653 0.3538,-0.382 0.1419,-0.1168 0.3798,-0.2171 0.7135,-0.301 0.3336,-0.0838 0.6254,-0.123 0.8754,-0.1175 0.2499,0.005 0.435,0.1009 0.5553,0.2863 0.1202,0.1854 0.1777,0.4255 0.1724,0.7201 -0.005,0.2947 -0.1219,0.5822 -0.3498,0.8627 -0.2279,0.2804 -0.5157,0.5075 -0.8636,0.6811 -0.3478,0.1736 -0.736,0.2874 -1.1644,0.3415 -0.4284,0.054 -0.7375,0.0816 -0.9273,0.0828 -0.1898,0.001 -0.3614,-0.0483 -0.515,-0.1485 -0.1535,-0.1002 -0.2875,-0.2437 -0.4018,-0.4307 -0.1144,-0.1869 -0.1941,-0.4032 -0.2392,-0.649 -0.045,-0.2458 -0.0698,-0.5064 -0.0743,-0.7818 -0.005,-0.2754 0.0138,-0.5483 0.0549,-0.8187 0.0411,-0.2705 0.131,-0.5195 0.2698,-0.7472 0.1387,-0.2277 0.307,-0.4295 0.5049,-0.6055 0.198,-0.1759 0.4078,-0.3136 0.6294,-0.413 0.2217,-0.0994 0.5827,-0.1648 1.0831,-0.1961 0.5004,-0.0312 0.8691,-0.005 1.1059,0.0795 0.2369,0.0842 0.4552,0.2018 0.655,0.3528 0.1999,0.151 0.3682,0.3132 0.5049,0.4867 0.1368,0.1735 0.2417,0.3746 0.3147,0.6032 0.0731,0.2285 0.1172,0.4638 0.1324,0.7058 0.0153,0.242 0.0108,0.4834 -0.0134,0.7241 -0.0243,0.2407 -0.1,0.4787 -0.2271,0.714 -0.127,0.2353 -0.285,0.4518 -0.4738,0.6496 -0.1889,0.1978 -0.3987,0.3739 -0.6294,0.5283 -0.2306,0.1545 -0.4585,0.2724 -0.6834,0.3538 -0.2249,0.0815 -0.4486,0.1316 -0.671,0.1503 -0.2224,0.0187 -0.4289,-0.005 -0.6194,-0.0721 -0.1905,-0.0668 -0.3506,-0.225 -0.4805,-0.4745 -0.1299,-0.2496 -0.2261,-0.5374 -0.2885,-0.8634 -0.0625,-0.3259 -0.0968,-0.6478 -0.1031,-0.9655 -0.006,-0.3177 0.003,-0.6021 0.0283,-0.853 0.0251,-0.2509 0.1102,-0.4813 0.2552,-0.6912 0.145,-0.2099 0.3,-0.3835 0.4649,-0.5207 0.1649,-0.1371 0.3486,-0.2377 0.5512,-0.3015 0.2026,-0.0639 0.4916,-0.0954 0.8672,-0.0945 0.3756,9e-4 0.6439,0.0347 0.8052,0.1014 0.2308,0.0956 0.7385,0.5593 1.5231,1.3913"
           style="fill:none;stroke:#000000;stroke-width:4.67716503;stroke-linecap:round;stroke-linejoin:round;stroke-miterlimit:10;stroke-dasharray:none;stroke-opacity:1"
           id="path1666"
           inkscape:connector-curvature="0" /></g><g
         id="g1668"
         transform="matrix(0.5454546,0,0,-0.5454546,0,792)"><path
           d="m 444.078,314.9103 c 1.2799,0.0176 2.5598,0.0352 3.8397,0.0528"
           style="fill:none;stroke:#000000;stroke-width:4.67716503;stroke-linecap:round;stroke-linejoin:round;stroke-miterlimit:10;stroke-dasharray:none;stroke-opacity:1"
           id="path1670"
           inkscape:connector-curvature="0" /></g><g
         id="g1672"
         transform="matrix(0.5454546,0,0,-0.5454546,0,792)"><path
           d="m 461.4742,314.9365 c 0.3276,-0.0154 0.9229,-0.1427 1.7859,-0.3819 0.5325,-0.1476 1.0392,-0.2638 1.5201,-0.3488 0.481,-0.0849 0.8915,-0.1452 1.2314,-0.1808 0.4863,-0.0509 2.021,-0.0706 4.6042,-0.0591"
           style="fill:none;stroke:#000000;stroke-width:4.67716503;stroke-linecap:round;stroke-linejoin:round;stroke-miterlimit:10;stroke-dasharray:none;stroke-opacity:1"
           id="path1674"
           inkscape:connector-curvature="0" /></g><g
         id="g1676"
         transform="matrix(0.5454546,0,0,-0.5454546,0,792)"><path
           d="m 485.6425,314.1564 c 0.5005,-0.4009 1.8897,-0.6301 4.1677,-0.6877"
           style="fill:none;stroke:#000000;stroke-width:4.67716503;stroke-linecap:round;stroke-linejoin:round;stroke-miterlimit:10;stroke-dasharray:none;stroke-opacity:1"
           id="path1678"
           inkscape:connector-curvature="0" /></g><g
         id="g1680"
         transform="matrix(0.5454546,0,0,-0.5454546,0,792)"><path
           d="m 505.6592,312.3703 c 1.5558,-0.0256 2.8422,-0.0111 3.8594,0.0434 0.6916,0.037 1.6808,0.0874 2.9676,0.1512 1.2868,0.0637 2.3518,0.1189 3.1949,0.1657 1.2892,0.0714 2.4074,0.0907 3.3546,0.0577"
           style="fill:none;stroke:#000000;stroke-width:4.67716503;stroke-linecap:round;stroke-linejoin:round;stroke-miterlimit:10;stroke-dasharray:none;stroke-opacity:1"
           id="path1682"
           inkscape:connector-curvature="0" /></g><g
         id="g1684"
         transform="matrix(0.5454546,0,0,-0.5454546,0,792)"><path
           d="m 532.4977,312.4461 c 1.2177,0.0352 2.4475,0.0127 3.6894,-0.0675 1.8901,-0.1221 3.5778,-0.2636 5.0633,-0.4248"
           style="fill:none;stroke:#000000;stroke-width:4.67716503;stroke-linecap:round;stroke-linejoin:round;stroke-miterlimit:10;stroke-dasharray:none;stroke-opacity:1"
           id="path1686"
           inkscape:connector-curvature="0" /></g><g
         id="g1688"
         transform="matrix(0.5454546,0,0,-0.5454546,0,792)"><path
           d="m 552.9242,311.5969 c 0.7008,0.0265 1.3689,0.0128 2.0044,-0.0412 0.6114,-0.0519 2.1893,-0.0958 4.7336,-0.1316"
           style="fill:none;stroke:#000000;stroke-width:4.67716503;stroke-linecap:round;stroke-linejoin:round;stroke-miterlimit:10;stroke-dasharray:none;stroke-opacity:1"
           id="path1690"
           inkscape:connector-curvature="0" /></g><g
         id="g1692"
         transform="matrix(0.5454546,0,0,-0.5454546,0,792)"><path
           d="m 572.6171,310.7651 c 1.6626,-0.0176 3.3252,-0.0352 4.9878,-0.0528"
           style="fill:none;stroke:#000000;stroke-width:4.67716503;stroke-linecap:round;stroke-linejoin:round;stroke-miterlimit:10;stroke-dasharray:none;stroke-opacity:1"
           id="path1694"
           inkscape:connector-curvature="0" /></g><g
         id="g1696"
         transform="matrix(0.5454546,0,0,-0.5454546,0,792)"><path
           d="m 434.891,315.0383 c 0.1178,-0.8513 0.1006,-1.3306 -0.0516,-1.4377 -0.1069,-0.0753 -0.2621,-0.1055 -0.4657,-0.0907 -0.2036,0.0148 -0.4162,0.156 -0.6376,0.4236 -0.2215,0.2677 -0.4033,0.5313 -0.5457,0.7908 -0.1423,0.2596 -0.2544,0.5266 -0.3363,0.8008 -0.0819,0.2744 -0.1361,0.6821 -0.1626,1.2231 -0.0264,0.5411 -0.006,0.9172 0.061,1.1283 0.0671,0.2111 0.1752,0.3892 0.3244,0.5344 0.1492,0.1453 0.3233,0.2555 0.5223,0.3307 0.199,0.0753 0.4262,0.1206 0.6816,0.1361 0.2555,0.0154 0.5216,0.0107 0.7985,-0.0142 0.2769,-0.0248 0.547,-0.1138 0.8102,-0.2667 0.2633,-0.153 0.5179,-0.3335 0.7639,-0.5416 0.246,-0.208 0.4654,-0.436 0.6582,-0.6838 0.1929,-0.2479 0.3613,-0.5096 0.5053,-0.7852 0.144,-0.2757 0.2568,-0.5579 0.3385,-0.8469 0.0817,-0.2889 0.1368,-0.721 0.1654,-1.2962 0.0286,-0.5751 0.009,-0.9906 -0.0577,-1.2464 -0.067,-0.2558 -0.1712,-0.4678 -0.3125,-0.636 -0.1413,-0.1681 -0.3199,-0.2989 -0.5359,-0.3923 -0.2161,-0.0934 -0.4605,-0.1487 -0.7335,-0.166 -0.273,-0.0172 -0.5448,-0.002 -0.8156,0.0468 -0.2707,0.0485 -0.5374,0.1636 -0.8,0.3453 -0.2626,0.1817 -0.508,0.39 -0.7361,0.6246 -0.2282,0.2347 -0.4298,0.4945 -0.605,0.7794 -0.1753,0.2848 -0.3003,0.5629 -0.3753,0.8343 -0.0749,0.2714 -0.1211,0.5461 -0.1384,0.824 -0.0174,0.278 -0.0141,0.5365 0.01,0.7755 0.024,0.239 0.1124,0.4497 0.2652,0.632 0.1528,0.1824 0.3507,0.346 0.5936,0.491 0.2429,0.1449 0.5111,0.2577 0.8045,0.3382 0.2935,0.0805 0.7694,0.1339 1.4277,0.1601 0.6583,0.0263 1.1097,-0.007 1.3541,-0.0988 0.2444,-0.0922 0.4629,-0.226 0.6556,-0.4016 0.1927,-0.1755 0.361,-0.3935 0.505,-0.654 0.1439,-0.2605 0.2449,-0.5503 0.3028,-0.8694 0.0579,-0.3191 0.0898,-0.6623 0.0956,-1.0295 0.006,-0.3672 -0.0583,-0.754 -0.1923,-1.1604 -0.134,-0.4063 -0.3423,-0.7816 -0.6249,-1.1259 -0.2826,-0.3443 -0.6023,-0.6247 -0.9591,-0.8413 -0.3568,-0.2166 -0.7589,-0.378 -1.2063,-0.4842 -0.4473,-0.1061 -0.9082,-0.1606 -1.3824,-0.1633 -0.4742,-0.003 -0.9528,0.0883 -1.4356,0.2728 -0.4829,0.1846 -0.9543,0.4458 -1.4143,0.7838 -0.4599,0.3379 -0.8643,0.7284 -1.2131,1.1714 -0.3489,0.443 -0.5744,0.9177 -0.6766,1.4241 -0.147,0.7288 0.2715,1.8797 1.2555,3.4526"
           style="fill:none;stroke:#000000;stroke-width:4.67716503;stroke-linecap:round;stroke-linejoin:round;stroke-miterlimit:10;stroke-dasharray:none;stroke-opacity:1"
           id="path1698"
           inkscape:connector-curvature="0" /></g><g
         id="g1700"
         transform="matrix(0.5454546,0,0,-0.5454546,0,792)"><path
           d="m 570.9084,396.4073 c -0.2677,0.1144 -0.5745,0.4897 -0.9204,1.1259 -0.3458,0.6362 -0.8168,1.4062 -1.4128,2.3099 -0.5961,0.9038 -1.1777,1.7354 -1.7448,2.4949 -0.567,0.7594 -1.0422,1.3792 -1.4255,1.8594 -0.3833,0.4802 -0.678,0.8565 -0.8839,1.1291 -0.2059,0.2725 -0.345,0.4722 -0.4174,0.599 -0.0723,0.1268 -0.1097,0.3799 -0.1122,0.7592 -0.003,0.3793 0.017,0.67 0.0585,0.8723 0.0416,0.2022 0.115,0.4178 0.2201,0.6466 0.1051,0.2288 0.2302,0.451 0.3753,0.6666 0.1451,0.2156 0.313,0.4266 0.5036,0.633 0.1907,0.2064 0.5124,0.4754 0.9652,0.807 0.4529,0.3316 0.7968,0.5592 1.0318,0.6827 0.235,0.1235 0.5374,0.2588 0.9074,0.406 0.3701,0.1472 0.7099,0.3192 1.0195,0.516 0.4748,0.3018 0.7504,0.5942 0.8268,0.8769"
           style="fill:none;stroke:#000000;stroke-width:2.07873988;stroke-linecap:round;stroke-linejoin:round;stroke-miterlimit:10;stroke-dasharray:none;stroke-opacity:1"
           id="path1702"
           inkscape:connector-curvature="0" /></g><g
         id="g1704"
         transform="matrix(0.5454546,0,0,-0.5454546,0,792)"><path
           d="m 576.0872,404.2049 c -0.0286,-0.192 -0.0443,-0.2969 -0.047,-0.3148 -0.002,-0.0126 -0.009,0.0277 -0.0198,0.1209 -0.0113,0.0932 -0.0614,0.5054 -0.1502,1.2366 -0.0888,0.7311 -0.144,1.4439 -0.1655,2.1383 -0.0215,0.6945 -0.0244,1.1634 -0.009,1.4069 0.0156,0.2434 0.0668,0.4565 0.1535,0.6393 0.0866,0.1828 0.1848,0.3334 0.2944,0.4521 0.1096,0.1186 0.2411,0.2089 0.3946,0.2709 0.1535,0.062 0.326,0.0961 0.5174,0.1023 0.1915,0.006 0.4107,-0.0405 0.6575,-0.1402 0.2467,-0.0997 0.512,-0.2839 0.796,-0.5527 0.284,-0.2687 0.5708,-0.5974 0.8605,-0.9859 0.2896,-0.3886 0.5627,-0.7911 0.8193,-1.2076 0.2566,-0.4164 0.469,-0.8342 0.6371,-1.2534 0.1682,-0.4192 0.2943,-0.8003 0.3785,-1.1432 0.0841,-0.3429 0.1343,-0.645 0.1506,-0.9063 0.0164,-0.2614 0.008,-0.4976 -0.0235,-0.7085 -0.032,-0.211 -0.1298,-0.3811 -0.2933,-0.5105 -0.1636,-0.1293 -0.3753,-0.2176 -0.6351,-0.2649 -0.2597,-0.0473 -0.5322,-0.0733 -0.8175,-0.078 -0.2852,-0.005 -0.5649,0.027 -0.8388,0.0952 -0.3988,0.0992 -0.8782,0.4046 -1.4384,0.916"
           style="fill:none;stroke:#000000;stroke-width:2.07873988;stroke-linecap:round;stroke-linejoin:round;stroke-miterlimit:10;stroke-dasharray:none;stroke-opacity:1"
           id="path1706"
           inkscape:connector-curvature="0" /></g><g
         id="g1708"
         transform="matrix(0.5454546,0,0,-0.5454546,0,792)"><path
           d="m 587.356,398.9772 c -0.1049,0.5676 -0.1597,1.3032 -0.1644,2.2066 -0.005,0.9035 0.006,2.024 0.0326,3.3616 0.0265,1.3377 0.0771,2.6596 0.1517,3.9658 0.0745,1.3062 0.1278,2.1086 0.1598,2.4071 0.032,0.2985 0.0517,0.4824 0.0591,0.5517 0.008,0.0693 0.0246,0.072 0.0513,0.008 0.0381,-0.0915 0.1664,-0.3989 0.3848,-0.9224"
           style="fill:none;stroke:#000000;stroke-width:2.07873988;stroke-linecap:round;stroke-linejoin:round;stroke-miterlimit:10;stroke-dasharray:none;stroke-opacity:1"
           id="path1710"
           inkscape:connector-curvature="0" /></g><g
         id="g1712"
         transform="matrix(0.5454546,0,0,-0.5454546,0,792)"><path
           d="m 592.837,401.6254 c -0.1718,-0.0872 -0.2102,-0.2316 -0.1151,-0.4334 0.0672,-0.1424 0.2851,-0.3838 0.6537,-0.7242 0.3686,-0.3404 0.6467,-0.5824 0.8342,-0.7259 0.1877,-0.1435 0.4344,-0.273 0.7403,-0.3886 0.3058,-0.1156 0.5156,-0.1708 0.6292,-0.1656 0.1137,0.005 0.2266,0.0885 0.3389,0.2501 0.1123,0.1616 0.2156,0.397 0.3099,0.7062 0.0944,0.3093 0.2091,0.8501 0.3442,1.6227 0.1351,0.7725 0.2435,1.3335 0.3254,1.683 0.0818,0.3496 0.1773,0.6474 0.2864,0.8936 0.1091,0.2462 0.2443,0.4529 0.4057,0.62 0.1613,0.1672 0.3431,0.2803 0.5453,0.3393 0.2022,0.0589 0.4262,0.0914 0.672,0.0973 0.2459,0.006 0.4949,-0.0463 0.7471,-0.1566 0.2522,-0.1103 0.6302,-0.3954 1.134,-0.8554 0.5037,-0.4599 0.9991,-0.9507 1.4861,-1.4722 0.4869,-0.5216 0.8355,-0.8782 1.0458,-1.0699 0.2103,-0.1918 0.4012,-0.3474 0.5726,-0.4669 0.1715,-0.1195 0.3598,-0.2004 0.5648,-0.2425 0.2052,-0.0422 0.3656,0.0134 0.4812,0.1669 0.1157,0.1535 0.262,0.472 0.4391,0.9555 0.1771,0.4834 0.3442,0.8396 0.5014,1.0686 0.2352,0.3425 0.5217,0.6182 0.8595,0.8269"
           style="fill:none;stroke:#000000;stroke-width:2.07873988;stroke-linecap:round;stroke-linejoin:round;stroke-miterlimit:10;stroke-dasharray:none;stroke-opacity:1"
           id="path1714"
           inkscape:connector-curvature="0" /></g><g
         id="g1716"
         transform="matrix(0.5454546,0,0,-0.5454546,0,792)"><path
           d="m 600.9139,399.2589 c -0.1305,-0.3854 -0.2013,-0.5946 -0.2125,-0.6277 -0.008,-0.0233 -0.0122,0.0414 -0.013,0.1942 -9e-4,0.1528 -0.005,0.8772 -0.012,2.1732 -0.007,1.296 -0.0778,2.6276 -0.212,3.9946 -0.1343,1.3671 -0.2255,2.3047 -0.2737,2.8128 -0.0482,0.508 -0.0976,1.1265 -0.1482,1.8554 -0.0506,0.7289 -0.0775,1.3199 -0.0806,1.7728 -0.003,0.4529 0.0103,0.6449 0.0402,0.5759 0.0429,-0.0987 0.1776,-0.4092 0.4043,-0.9315"
           style="fill:none;stroke:#000000;stroke-width:2.07873988;stroke-linecap:round;stroke-linejoin:round;stroke-miterlimit:10;stroke-dasharray:none;stroke-opacity:1"
           id="path1718"
           inkscape:connector-curvature="0" /></g><g
         id="g1720"
         transform="matrix(0.5454546,0,0,-0.5454546,0,792)"><path
           d="m 607.9468,397.3842 c -0.098,0 -0.1551,0 -0.1713,0 -0.0113,0 -4e-4,0.009 0.0328,0.0271 0.0333,0.0181 0.1254,0.0683 0.2764,0.1505 0.1511,0.0823 0.4414,0.352 0.8709,0.8092 0.4296,0.4573 0.7952,0.8376 1.0969,1.1411 0.3017,0.3035 0.6062,0.5879 0.9134,0.8532 0.3073,0.2654 0.6109,0.5037 0.9107,0.7151 0.2999,0.2113 0.6034,0.3988 0.9105,0.5625 0.3071,0.1638 0.709,0.3428 1.2055,0.5372 0.4965,0.1944 0.9214,0.3328 1.2748,0.4154 0.3533,0.0825 0.542,0.2063 0.5661,0.3713 0.0241,0.1649 -0.0182,0.371 -0.1268,0.618 -0.1087,0.2471 -0.2733,0.5427 -0.494,0.8868 -0.2207,0.3442 -0.638,0.9132 -1.2521,1.707 -0.6141,0.7938 -1.2259,1.5739 -1.8355,2.3404 -0.6097,0.7665 -1.03,1.3031 -1.261,1.6098 -0.231,0.3068 -0.4845,0.6855 -0.7607,1.1362 -0.2762,0.4506 -0.4283,0.7485 -0.4562,0.8938 -0.0399,0.2082 0.0965,0.4218 0.4094,0.6405"
           style="fill:none;stroke:#000000;stroke-width:2.07873988;stroke-linecap:round;stroke-linejoin:round;stroke-miterlimit:10;stroke-dasharray:none;stroke-opacity:1"
           id="path1722"
           inkscape:connector-curvature="0" /></g><g
         id="g1724"
         transform="matrix(0.5454546,0,0,-0.5454546,0,792)"><path
           d="m 389.2527,309.5418 c -0.0533,-0.4813 -0.081,-0.7322 -0.0833,-0.7528 -0.002,-0.0146 -0.003,-0.0141 -0.005,0.001 -0.002,0.0155 -0.0143,0.1532 -0.0386,0.4131 -0.0243,0.2599 -0.112,0.5911 -0.263,0.9936 -0.1511,0.4025 -0.3322,0.8334 -0.5431,1.2926 -0.211,0.4593 -0.4557,0.939 -0.734,1.4391 -0.2784,0.5002 -0.5463,0.9547 -0.8038,1.3637 -0.2575,0.409 -0.6269,0.9472 -1.1083,1.6145 -0.4814,0.6673 -0.8986,1.2183 -1.2517,1.653 -0.3531,0.4347 -0.5424,0.7248 -0.5677,0.8705 -0.0254,0.1456 -0.0134,0.3111 0.0361,0.4964 0.0494,0.1854 0.2307,0.5343 0.5437,1.0465 0.313,0.5123 0.5884,0.9076 0.8262,1.1859 0.2379,0.2783 0.4904,0.5369 0.7576,0.776 0.2673,0.2391 0.5439,0.4629 0.8299,0.6717 0.286,0.2087 0.8071,0.5222 1.5632,0.9404 0.7561,0.4183 1.2785,0.7268 1.5673,0.9255 0.2887,0.1987 0.5457,0.4356 0.7709,0.7106 0.312,0.3811 0.5768,0.4216 0.7943,0.1215"
           style="fill:none;stroke:#000000;stroke-width:2.07873988;stroke-linecap:round;stroke-linejoin:round;stroke-miterlimit:10;stroke-dasharray:none;stroke-opacity:1"
           id="path1726"
           inkscape:connector-curvature="0" /></g><g
         id="g1728"
         transform="matrix(0.5454546,0,0,-0.5454546,0,792)"><path
           d="m 393.4206,316.6723 c -0.1678,0.0574 -0.2614,0.0145 -0.2807,-0.1287 -0.0137,-0.1021 0.0959,-0.3462 0.3289,-0.7322 0.233,-0.3859 0.6081,-0.9075 1.1252,-1.5647 0.5171,-0.6572 0.8618,-1.079 1.0341,-1.2653 0.1722,-0.1863 0.2947,0.2833 0.3673,1.4088 0.0727,1.1254 0.115,2.1445 0.1269,3.0573 0.0119,0.9128 0.0179,1.9674 0.018,3.1639 10e-5,1.1964 0.2608,1.6107 0.7819,1.2429"
           style="fill:none;stroke:#000000;stroke-width:2.07873988;stroke-linecap:round;stroke-linejoin:round;stroke-miterlimit:10;stroke-dasharray:none;stroke-opacity:1"
           id="path1730"
           inkscape:connector-curvature="0" /></g><g
         id="g1732"
         transform="matrix(0.5454546,0,0,-0.5454546,0,792)"><path
           d="m 402.4477,310.4042 c -0.3606,0.8808 -0.5486,2.0334 -0.564,3.4579 -0.0154,1.4244 -0.0112,2.4208 0.0125,2.9894 0.0238,0.5686 0.0683,1.3051 0.1336,2.2097 0.0654,0.9045 0.1041,2.0438 0.1161,3.4179 0.0121,1.3741 0.0483,2.1435 0.1087,2.3083 0.0858,0.234 0.2429,0.3184 0.4713,0.2531"
           style="fill:none;stroke:#000000;stroke-width:2.07873988;stroke-linecap:round;stroke-linejoin:round;stroke-miterlimit:10;stroke-dasharray:none;stroke-opacity:1"
           id="path1734"
           inkscape:connector-curvature="0" /></g><g
         id="g1736"
         transform="matrix(0.5454546,0,0,-0.5454546,0,792)"><path
           d="m 407.3964,314.2411 c -0.1377,-0.1564 -0.2028,-0.3511 -0.1954,-0.5842 0.005,-0.1571 0.1709,-0.364 0.4976,-0.6207 0.3267,-0.2567 0.5927,-0.4044 0.7982,-0.443 0.2055,-0.0386 0.3502,-0.0383 0.4342,9e-4 0.0839,0.0393 0.1597,0.1876 0.2275,0.445 0.0678,0.2574 0.1368,0.8305 0.207,1.7193 0.0702,0.8887 0.1315,1.5375 0.1839,1.9462 0.0525,0.4087 0.1278,0.7879 0.2261,1.1377 0.0983,0.3498 0.2325,0.6477 0.4027,0.8939 0.1701,0.2462 0.3686,0.4278 0.5954,0.5449 0.2268,0.117 0.4604,0.1933 0.7008,0.2287 0.2404,0.0355 0.4825,0.0511 0.7262,0.0467 0.2438,-0.004 0.4788,-0.0741 0.705,-0.2092 0.2263,-0.1351 0.4427,-0.3018 0.6495,-0.5002 0.2066,-0.1983 0.5024,-0.5587 0.8871,-1.0811 0.3847,-0.5224 0.7641,-1.0723 1.1381,-1.6497 0.3739,-0.5773 0.7133,-1.0368 1.0181,-1.3784 0.3048,-0.3417 0.5688,-0.544 0.7922,-0.607 0.2233,-0.063 0.4974,0.0839 0.8222,0.4407 0.4862,0.534 0.6733,0.9826 0.5612,1.3455"
           style="fill:none;stroke:#000000;stroke-width:2.07873988;stroke-linecap:round;stroke-linejoin:round;stroke-miterlimit:10;stroke-dasharray:none;stroke-opacity:1"
           id="path1738"
           inkscape:connector-curvature="0" /></g><g
         id="g1740"
         transform="matrix(0.5454546,0,0,-0.5454546,0,792)"><path
           d="m 412.995,311.0005 c -0.3683,0.0593 -0.5898,0.2923 -0.6644,0.6991 -0.0516,0.2813 -0.0777,0.8852 -0.0782,1.8119 -5e-4,0.9266 0.004,2.2184 0.0124,3.8753 0.009,1.6569 0.009,2.718 0.001,3.1833 -0.008,0.4652 -0.0304,0.9933 -0.0675,1.5841 -0.0371,0.5909 -0.0562,1.0338 -0.0574,1.3289 -10e-4,0.295 0.0205,0.3997 0.065,0.3141 0.0637,-0.1225 0.264,-0.5077 0.6009,-1.1558"
           style="fill:none;stroke:#000000;stroke-width:2.07873988;stroke-linecap:round;stroke-linejoin:round;stroke-miterlimit:10;stroke-dasharray:none;stroke-opacity:1"
           id="path1742"
           inkscape:connector-curvature="0" /></g><g
         id="g1744"
         transform="matrix(0.5454546,0,0,-0.5454546,0,792)"><path
           d="m 417.5758,309.5065 c 0.3076,0.4486 0.7243,1.0058 1.2502,1.6716 0.5259,0.6658 1.0471,1.2679 1.5635,1.8062 0.5165,0.5384 1.0448,1.0269 1.5851,1.4655 0.5402,0.4387 0.857,0.7072 0.9502,0.8056 0.0932,0.0985 0.1319,0.2164 0.1162,0.3537 -0.0157,0.1373 -0.2607,0.7476 -0.735,1.831 -0.4743,1.0833 -0.9442,2.0819 -1.4099,2.9958 -0.4656,0.9138 -0.8884,1.719 -1.2685,2.4155 -0.38,0.6965 -0.5838,1.0915 -0.6112,1.1849 -0.0385,0.1313 0.1272,0.1919 0.497,0.1819"
           style="fill:none;stroke:#000000;stroke-width:2.07873988;stroke-linecap:round;stroke-linejoin:round;stroke-miterlimit:10;stroke-dasharray:none;stroke-opacity:1"
           id="path1746"
           inkscape:connector-curvature="0" /></g><g
         id="g1748"
         transform="matrix(0.5454546,0,0,-0.5454546,0,792)"><path
           d="m 499.9127,245.4267 c -0.3289,0.426 -0.6331,0.8916 -0.9126,1.397 -0.2796,0.5053 -0.6236,1.0815 -1.0322,1.7285 -0.4086,0.647 -0.9449,1.4695 -1.6089,2.4673 -0.664,0.9979 -1.1658,1.7638 -1.5055,2.2976 -0.3398,0.5339 -0.5776,0.9371 -0.7134,1.2096 -0.1358,0.2725 -0.2468,0.5588 -0.3331,0.8588 -0.0862,0.3 -0.1359,0.6455 -0.149,1.0364 -0.013,0.3908 0.1024,0.722 0.3465,0.9933 0.244,0.2714 0.5359,0.5445 0.8756,0.8194 0.3397,0.275 0.6418,0.502 0.9061,0.6812 0.2644,0.1791 0.6898,0.4234 1.2762,0.7327 0.5864,0.3094 1.1348,0.553 1.6452,0.7309 0.5104,0.1778 0.9652,0.3108 1.3645,0.3987 0.6257,0.1379 1.0505,0.1437 1.2743,0.0173"
           style="fill:none;stroke:#ff00a2;stroke-width:2.07873988;stroke-linecap:round;stroke-linejoin:round;stroke-miterlimit:10;stroke-dasharray:none;stroke-opacity:1"
           id="path1750"
           inkscape:connector-curvature="0" /></g><g
         id="g1752"
         transform="matrix(0.5454546,0,0,-0.5454546,0,792)"><path
           d="m 502.0714,253.0565 c 1.8828,0.071 3.8518,0.0365 5.907,-0.1035 1.3635,-0.0929 2.0627,-0.2449 2.0977,-0.456"
           style="fill:none;stroke:#ff00a2;stroke-width:2.07873988;stroke-linecap:round;stroke-linejoin:round;stroke-miterlimit:10;stroke-dasharray:none;stroke-opacity:1"
           id="path1754"
           inkscape:connector-curvature="0" /></g><g
         id="g1756"
         transform="matrix(0.5454546,0,0,-0.5454546,0,792)"><path
           d="m 507.4074,248.3982 c -0.4584,0.1514 -0.7028,0.6139 -0.7333,1.3877 -0.0209,0.5289 -0.0156,1.0277 0.0159,1.4965 0.0314,0.4688 0.1113,1.2272 0.2394,2.2752 0.1282,1.048 0.2282,2.0896 0.3,3.1247 0.0719,1.0352 0.1164,1.6822 0.1337,1.941 0.0172,0.2588 0.0409,0.3649 0.0709,0.3182 0.0431,-0.0668 0.1784,-0.2769 0.4061,-0.6304"
           style="fill:none;stroke:#ff00a2;stroke-width:2.07873988;stroke-linecap:round;stroke-linejoin:round;stroke-miterlimit:10;stroke-dasharray:none;stroke-opacity:1"
           id="path1758"
           inkscape:connector-curvature="0" /></g><g
         id="g1760"
         transform="matrix(0.5454546,0,0,-0.5454546,0,792)"><path
           d="m 512.8569,247.2221 c -0.09,0.7694 -0.1355,1.8312 -0.1367,3.1856 -10e-4,1.3544 0.0111,2.3975 0.0369,3.1294 0.0257,0.7319 0.0735,1.4368 0.1434,2.1146 0.0698,0.6778 0.1419,1.2935 0.2161,1.8471 0.0743,0.5536 0.1773,1.1896 0.3089,1.9079 0.1317,0.7183 0.2577,1.1967 0.378,1.4352 0.1202,0.2385 0.2594,0.3292 0.4176,0.2722 0.2282,-0.0823 0.4199,-0.3422 0.575,-0.7797"
           style="fill:none;stroke:#ff00a2;stroke-width:2.07873988;stroke-linecap:round;stroke-linejoin:round;stroke-miterlimit:10;stroke-dasharray:none;stroke-opacity:1"
           id="path1762"
           inkscape:connector-curvature="0" /></g><g
         id="g1764"
         transform="matrix(0.5454546,0,0,-0.5454546,0,792)"><path
           d="m 518.3561,250.8154 c -0.0754,-0.432 -0.0337,-0.8174 0.1251,-1.156 0.1077,-0.2297 0.2353,-0.4293 0.3828,-0.599 0.1476,-0.1697 0.3172,-0.2861 0.5088,-0.3492 0.1917,-0.0631 0.3374,-0.09 0.4374,-0.0807 0.0999,0.009 0.1858,0.1068 0.2578,0.2927 0.072,0.1858 0.1645,0.6293 0.2775,1.3304 0.113,0.7011 0.2103,1.2353 0.292,1.6024 0.0816,0.3671 0.1899,0.7209 0.3247,1.0612 0.1349,0.3404 0.2971,0.6319 0.4867,0.8745 0.1896,0.2426 0.4028,0.4302 0.6395,0.5627 0.2366,0.1325 0.4717,0.2225 0.7052,0.2701 0.2335,0.0476 0.4757,0.0698 0.7267,0.0666 0.2509,-0.003 0.4899,-0.0762 0.7169,-0.2191 0.227,-0.1429 0.4438,-0.3271 0.6506,-0.5526 0.2068,-0.2255 0.4046,-0.4789 0.5935,-0.7602 0.1889,-0.2813 0.369,-0.5786 0.5403,-0.8919 0.1713,-0.3132 0.4164,-0.8058 0.7353,-1.4776 0.3189,-0.6719 0.5571,-1.1488 0.7148,-1.431 0.1577,-0.2821 0.3037,-0.5165 0.4382,-0.7031 0.1345,-0.1867 0.3059,-0.3236 0.5141,-0.411 0.2082,-0.0873 0.3978,-0.0404 0.5689,0.1406 0.1711,0.181 0.3825,0.4554 0.6343,0.823 0.2517,0.3677 0.4485,0.6099 0.5903,0.7267 0.203,0.1672 0.4394,0.1536 0.709,-0.0406"
           style="fill:none;stroke:#ff00a2;stroke-width:2.07873988;stroke-linecap:round;stroke-linejoin:round;stroke-miterlimit:10;stroke-dasharray:none;stroke-opacity:1"
           id="path1766"
           inkscape:connector-curvature="0" /></g><g
         id="g1768"
         transform="matrix(0.5454546,0,0,-0.5454546,0,792)"><path
           d="m 525.6045,246.6179 c -0.5706,-0.2463 -0.8857,-0.1453 -0.9453,0.3029 -0.0427,0.3208 -0.0642,1.1109 -0.0646,2.3704 -4e-4,1.2594 -0.0277,3.083 -0.0817,5.4706 -0.0539,2.3876 -0.0813,3.7495 -0.0822,4.0859 -10e-4,0.3363 0.0114,0.6057 0.0371,0.8083 0.0256,0.2027 0.1105,0.3954 0.2546,0.5782 0.2025,0.2568 0.5431,0.0519 1.022,-0.6148"
           style="fill:none;stroke:#ff00a2;stroke-width:2.07873988;stroke-linecap:round;stroke-linejoin:round;stroke-miterlimit:10;stroke-dasharray:none;stroke-opacity:1"
           id="path1770"
           inkscape:connector-curvature="0" /></g><g
         id="g1772"
         transform="matrix(0.5454546,0,0,-0.5454546,0,792)"><path
           d="m 532.2825,244.4143 c -0.2291,0.1193 -0.3543,0.2464 -0.3757,0.3812 -0.0148,0.0935 0.2507,0.4158 0.7966,0.9667 0.5458,0.5509 1.0779,1.0599 1.5961,1.5269 0.5182,0.467 1.0108,0.9317 1.4778,1.3942 0.467,0.4625 0.8211,0.8307 1.0624,1.1046 0.2414,0.2739 0.4255,0.5278 0.5524,0.7618 0.1269,0.2339 0.2111,0.5156 0.2525,0.8453 0.0414,0.3296 0.0537,0.6075 0.0368,0.8338 -0.0169,0.2262 -0.1278,0.5791 -0.3325,1.0586 -0.2047,0.4795 -0.4694,0.9806 -0.7941,1.5031 -0.3247,0.5226 -0.8786,1.3316 -1.6619,2.427 -0.7832,1.0954 -1.3042,1.8754 -1.5628,2.3398 -0.2587,0.4644 -0.4211,0.8092 -0.4871,1.0343 -0.0965,0.3295 -0.0942,0.759 0.007,1.2885"
           style="fill:none;stroke:#ff00a2;stroke-width:2.07873988;stroke-linecap:round;stroke-linejoin:round;stroke-miterlimit:10;stroke-dasharray:none;stroke-opacity:1"
           id="path1774"
           inkscape:connector-curvature="0" /></g><g
         id="g1776"
         transform="matrix(0.5454546,0,0,-0.5454546,0,792)"><path
           d="m 450.1982,445.7824 c 0.0541,-0.3396 0.1245,-0.5805 0.2111,-0.7226 0.0596,-0.0978 0.0974,-0.1598 0.1133,-0.186 0.016,-0.0261 0.0107,-0.01 -0.0158,0.0492 -0.0265,0.0589 -0.0892,0.1986 -0.1882,0.4188 -0.099,0.2203 -0.2805,0.5474 -0.5446,0.9813 -0.264,0.4338 -0.5645,0.8995 -0.9017,1.397 -0.3371,0.4975 -0.6948,1.0062 -1.0729,1.5259 -0.3781,0.5197 -0.7671,1.0234 -1.1671,1.511 -0.4001,0.4876 -0.9496,1.0992 -1.6488,1.8349 -0.6991,0.7356 -1.1786,1.2324 -1.4385,1.4904 -0.2599,0.258 -0.4701,0.4844 -0.6307,0.6791 -0.1605,0.1948 -0.2825,0.3693 -0.3659,0.5234 -0.0833,0.1541 -0.1132,0.3884 -0.0895,0.703 0.0237,0.3145 0.4311,0.8562 1.2221,1.6252 0.7909,0.7691 1.5297,1.4635 2.2162,2.0833 0.6866,0.6198 1.3429,1.1788 1.9688,1.6772 0.626,0.4983 1.2507,0.9454 1.874,1.3413 0.6234,0.3959 1.1839,0.5553 1.6817,0.478"
           style="fill:none;stroke:#ff00a2;stroke-width:2.07873988;stroke-linecap:round;stroke-linejoin:round;stroke-miterlimit:10;stroke-dasharray:none;stroke-opacity:1"
           id="path1778"
           inkscape:connector-curvature="0" /></g><g
         id="g1780"
         transform="matrix(0.5454546,0,0,-0.5454546,0,792)"><path
           d="m 452.1468,455.3386 c -0.2033,0.0375 -0.3103,0.0572 -0.3209,0.0592 -0.007,10e-4 -10e-4,0.003 0.0177,0.004 0.0193,0.001 0.1621,0.01 0.4285,0.0251 0.2664,0.0157 0.5744,0.0498 0.9241,0.1025 0.3497,0.0528 0.9086,0.104 1.6768,0.1539 1.2849,0.0833 2.0995,0.0997 2.4438,0.0491"
           style="fill:none;stroke:#ff00a2;stroke-width:2.07873988;stroke-linecap:round;stroke-linejoin:round;stroke-miterlimit:10;stroke-dasharray:none;stroke-opacity:1"
           id="path1782"
           inkscape:connector-curvature="0" /></g><g
         id="g1784"
         transform="matrix(0.5454546,0,0,-0.5454546,0,792)"><path
           d="m 465.1174,446.872 c -0.074,0.3886 -0.0983,1.0061 -0.073,1.8524 0.0254,0.8464 0.0886,1.9386 0.1897,3.2766 0.1011,1.3381 0.1806,2.3437 0.2385,3.017 0.0579,0.6732 0.1175,1.255 0.1789,1.7452 0.0613,0.4903 0.1126,0.9886 0.1538,1.4951 0.0412,0.5065 0.0995,1.0069 0.175,1.5013 0.0755,0.4945 0.2207,0.9047 0.4354,1.2307"
           style="fill:none;stroke:#ff00a2;stroke-width:2.07873988;stroke-linecap:round;stroke-linejoin:round;stroke-miterlimit:10;stroke-dasharray:none;stroke-opacity:1"
           id="path1786"
           inkscape:connector-curvature="0" /></g><g
         id="g1788"
         transform="matrix(0.5454546,0,0,-0.5454546,0,792)"><path
           d="m 470.9019,451.0794 c -0.0779,-0.3505 -0.0361,-0.6887 0.1252,-1.0145 0.1089,-0.2198 0.2489,-0.4371 0.4201,-0.6518 0.1712,-0.2147 0.3535,-0.4041 0.5468,-0.5681 0.1932,-0.1641 0.3915,-0.2952 0.5949,-0.3935 0.2034,-0.0982 0.4034,-0.1615 0.5999,-0.1898 0.1965,-0.0283 0.3808,-0.006 0.5528,0.0681 0.1721,0.0738 0.3211,0.2609 0.4472,0.5613 0.126,0.3004 0.278,1.0935 0.4559,2.3791 0.1779,1.2856 0.3108,2.1029 0.3989,2.4518 0.088,0.3489 0.1998,0.6583 0.3352,0.9281 0.1355,0.2699 0.2853,0.4857 0.4492,0.6473 0.164,0.1617 0.3551,0.2757 0.5734,0.342 0.2183,0.0663 0.4472,0.1028 0.6868,0.1094 0.2395,0.007 0.4851,-0.057 0.7366,-0.191 0.2516,-0.134 0.5117,-0.3371 0.7803,-0.6092 0.2686,-0.2721 0.538,-0.5815 0.8084,-0.9282 0.2703,-0.3467 0.6039,-0.8247 1.0007,-1.4339 0.3969,-0.6093 0.7791,-1.1697 1.1466,-1.6814 0.3675,-0.5117 0.7019,-0.9213 1.0031,-1.2287 0.3012,-0.3075 0.5242,-0.4985 0.6689,-0.573 0.1447,-0.0746 0.3106,-0.0988 0.4977,-0.0727 0.1871,0.0261 0.4234,0.3633 0.7088,1.0114 0.2854,0.6482 0.5768,1.2487 0.8745,1.8016 l 0.3387,0.6452 -0.034,-0.0524"
           style="fill:none;stroke:#ff00a2;stroke-width:2.07873988;stroke-linecap:round;stroke-linejoin:round;stroke-miterlimit:10;stroke-dasharray:none;stroke-opacity:1"
           id="path1790"
           inkscape:connector-curvature="0" /></g><g
         id="g1792"
         transform="matrix(0.5454546,0,0,-0.5454546,0,792)"><path
           d="m 478.8468,446.0887 c -0.2102,0.3237 -0.3188,3.0531 -0.3259,8.1882 -0.007,5.1352 0.0235,7.7236 0.0916,7.7655 0.0963,0.0593 0.3926,-0.3043 0.889,-1.0906"
           style="fill:none;stroke:#ff00a2;stroke-width:2.07873988;stroke-linecap:round;stroke-linejoin:round;stroke-miterlimit:10;stroke-dasharray:none;stroke-opacity:1"
           id="path1794"
           inkscape:connector-curvature="0" /></g><g
         id="g1796"
         transform="matrix(0.5454546,0,0,-0.5454546,0,792)"><path
           d="m 488.2563,445.5585 c -0.3805,-0.0607 -0.5414,0.005 -0.4827,0.198 0.0421,0.1382 0.2699,0.3978 0.6834,0.7788 0.4135,0.3811 0.7581,0.6618 1.0339,0.8421 0.2759,0.1804 0.862,0.5865 1.7584,1.2182 0.8964,0.6318 1.5676,1.1526 2.0136,1.5625 0.4461,0.4098 0.8227,0.7845 1.13,1.1239 0.3073,0.3394 0.5013,0.5884 0.582,0.747 0.0807,0.1586 0.1353,0.4096 0.1638,0.7528 0.0285,0.3433 3e-4,0.6324 -0.0846,0.8674 -0.0848,0.235 -0.2235,0.4989 -0.4161,0.7917 -0.1926,0.2928 -0.437,0.6215 -0.7334,0.9861 -0.2963,0.3646 -0.7827,0.9327 -1.4592,1.7041 -0.6764,0.7715 -1.1833,1.3445 -1.5205,1.719 -0.3372,0.3745 -0.6325,0.723 -0.886,1.0456 -0.2534,0.3226 -0.4679,0.6175 -0.6437,0.8848 -0.1758,0.2672 -0.3189,0.5317 -0.4296,0.7934 -0.1106,0.2617 -0.1753,0.506 -0.1943,0.7328 -0.0273,0.3257 0.2527,0.7464 0.84,1.2621"
           style="fill:none;stroke:#ff00a2;stroke-width:2.07873988;stroke-linecap:round;stroke-linejoin:round;stroke-miterlimit:10;stroke-dasharray:none;stroke-opacity:1"
           id="path1798"
           inkscape:connector-curvature="0" /></g><g
         id="g1800"
         transform="matrix(0.6594791,0,0,-0.5454546,226.926,716.1738)" /><g
         id="g1802"
         transform="matrix(0.6436496,0,0,-0.5454546,138.5292,682.368)" /><g
         id="g1804"
         transform="matrix(0.8727159,0,0,-0.5454546,143.474,682.7188)" /><g
         id="g1806"
         transform="matrix(0.7779641,0,0,-0.5454546,268.6904,658.6978)" /><g
         id="g1808"
         transform="matrix(1.733628,0,0,0.5454546,299.1244,645.2365)" /><g
         id="g1810"
         transform="matrix(1.807636,0,0,0.5454546,304.0931,641.0407)" /><g
         id="g1812"
         transform="matrix(2.041253,0,0,0.5454546,310.0739,635.9336)" /><g
         id="g1814"
         transform="matrix(1.930069,0,0,0.5454546,316.6965,630.7883)" /><g
         id="g1816"
         transform="matrix(2.049144,0,0,0.5454546,322.4353,626.3702)" /><g
         id="g1818"
         transform="matrix(0.6314372,0,0,-0.5454546,208.7875,624.1485)" /><g
         id="g1820"
         transform="matrix(0.7841197,0,0,-0.5454546,233.2151,623.6277)" /><g
         id="g1822"
         transform="matrix(2.290464,0,0,0.5454546,240.9488,619.4478)" /><g
         id="g1824"
         transform="matrix(3.102924,0,0,0.5454546,250.4376,619.5654)" /><g
         id="g1826"
         transform="matrix(2.097128,0,0,0.5454546,263.6203,619.9579)" /><g
         id="g1828"
         transform="matrix(4.430784,0,0,0.5454546,274.5385,620.6571)" /><g
         id="g1830"
         transform="matrix(3.271267,0,0,0.5454546,289.1777,620.8462)" /><g
         id="g1832"
         transform="matrix(2.96962,0,0,0.5454546,300.3194,621.2799)" /><g
         id="g1834"
         transform="matrix(2.599191,0,0,0.5454546,311.061,621.7377)" /><g
         id="g1836"
         transform="matrix(0.7447825,0,0,-0.5454546,321.8174,614.7065)" /><g
         id="g1838"
         transform="matrix(0.6369101,0,0,-0.5454546,332.7267,633.421)" /><g
         id="g1840"
         transform="matrix(2.595489,0,0,-0.5454546,336.0145,634.6406)" /><g
         id="g1842"
         transform="matrix(0.8112731,0,0,-0.5454546,362.2583,590.2569)" /><g
         id="g1844"
         transform="matrix(0.6468862,0,0,-0.5454546,382.2236,590.9352)" /><g
         id="g1846"
         transform="matrix(1.216206,0,0,-0.5454546,264.4308,558.9261)" /><g
         id="g1848"
         transform="matrix(0.5564369,0,0,-0.6572895,240.7549,549.9299)" /><g
         id="g1850"
         transform="matrix(0.6488046,0,0,-0.5454546,253.0729,549.5846)" /></g></g></svg>