<?xml version="1.0" encoding="UTF-8" standalone="no"?>
<svg
   xmlns:dc="http://purl.org/dc/elements/1.1/"
   xmlns:cc="http://creativecommons.org/ns#"
   xmlns:rdf="http://www.w3.org/1999/02/22-rdf-syntax-ns#"
   xmlns:svg="http://www.w3.org/2000/svg"
   xmlns="http://www.w3.org/2000/svg"
   xmlns:xlink="http://www.w3.org/1999/xlink"
   xmlns:sodipodi="http://sodipodi.sourceforge.net/DTD/sodipodi-0.dtd"
   xmlns:inkscape="http://www.inkscape.org/namespaces/inkscape"
   width="9.5164013mm"
   height="16.726257mm"
   viewBox="0 0 9.5164005 16.726257"
   version="1.1"
   id="svg2015"
   inkscape:version="0.92.5 (2060ec1f9f, 2020-04-08)"
   sodipodi:docname="mcx.svg">
  <defs
     id="defs2009">
    <marker
       inkscape:isstock="true"
       style="overflow:visible"
       id="Arrow1Mend"
       refX="0"
       refY="0"
       orient="auto"
       inkscape:stockid="Arrow1Mend">
      <path
         transform="matrix(-0.4,0,0,-0.4,-4,0)"
         style="fill:#000000;fill-opacity:1;fill-rule:evenodd;stroke:#000000;stroke-width:1.00000003pt;stroke-opacity:1"
         d="M 0,0 5,-5 -12.5,0 5,5 Z"
         id="path1926"
         inkscape:connector-curvature="0" />
    </marker>
    <marker
       inkscape:isstock="true"
       style="overflow:visible"
       id="marker2180"
       refX="0"
       refY="0"
       orient="auto"
       inkscape:stockid="Arrow1Lend">
      <path
         transform="matrix(-0.8,0,0,-0.8,-10,0)"
         style="fill:#000000;fill-opacity:1;fill-rule:evenodd;stroke:#000000;stroke-width:1.00000003pt;stroke-opacity:1"
         d="M 0,0 5,-5 -12.5,0 5,5 Z"
         id="path1920"
         inkscape:connector-curvature="0" />
    </marker>
    <marker
       inkscape:stockid="Arrow1Send"
       orient="auto"
       refY="0"
       refX="0"
       id="Arrow1Send"
       style="overflow:visible"
       inkscape:isstock="true">
      <path
         id="path4042"
         d="M 0,0 5,-5 -12.5,0 5,5 Z"
         style="fill:#000000;fill-opacity:1;fill-rule:evenodd;stroke:#000000;stroke-width:1.00000003pt;stroke-opacity:1"
         transform="matrix(-0.2,0,0,-0.2,-1.2,0)"
         inkscape:connector-curvature="0" />
    </marker>
    <marker
       inkscape:stockid="Arrow1Lend"
       orient="auto"
       refY="0"
       refX="0"
       id="Arrow1Lend"
       style="overflow:visible"
       inkscape:isstock="true">
      <path
         id="path4030"
         d="M 0,0 5,-5 -12.5,0 5,5 Z"
         style="fill:#000000;fill-opacity:1;fill-rule:evenodd;stroke:#000000;stroke-width:1.00000003pt;stroke-opacity:1"
         transform="matrix(-0.8,0,0,-0.8,-10,0)"
         inkscape:connector-curvature="0" />
    </marker>
    <g
       id="g6878">
      <symbol
         overflow="visible"
         id="symbol4411"
         style="overflow:visible">
        <path
           style="stroke:none"
           d=""
           id="path6135"
           inkscape:connector-curvature="0" />
      </symbol>
      <symbol
         overflow="visible"
         id="symbol5772"
         style="overflow:visible">
        <path
           style="stroke:none"
           d="M 7.609375,-6.046875 C 7.703125,-6.40625 7.71875,-6.5 8.4375,-6.5 c 0.265625,0 0.34375,0 0.34375,-0.203125 0,-0.109375 -0.109375,-0.109375 -0.140625,-0.109375 -0.28125,0 -1,0.03125 -1.28125,0.03125 -0.28125,0 -0.984375,-0.03125 -1.28125,-0.03125 -0.078125,0 -0.1875,0 -0.1875,0.203125 0,0.109375 0.09375,0.109375 0.28125,0.109375 0.015625,0 0.203125,0 0.375,0.015625 0.1875,0.03125 0.265625,0.03125 0.265625,0.171875 0,0.03125 0,0.046875 -0.03125,0.1875 L 6.1875,-3.703125 H 3.140625 l 0.59375,-2.34375 C 3.8125,-6.40625 3.84375,-6.5 4.5625,-6.5 c 0.265625,0 0.34375,0 0.34375,-0.203125 0,-0.109375 -0.109375,-0.109375 -0.140625,-0.109375 -0.28125,0 -1,0.03125 -1.28125,0.03125 -0.28125,0 -0.984375,-0.03125 -1.28125,-0.03125 -0.078125,0 -0.1875,0 -0.1875,0.203125 0,0.109375 0.09375,0.109375 0.28125,0.109375 0.015625,0 0.203125,0 0.375,0.015625 0.171875,0.03125 0.265625,0.03125 0.265625,0.171875 0,0.03125 0,0.0625 -0.03125,0.1875 L 1.5625,-0.78125 c -0.09375,0.390625 -0.109375,0.46875 -0.90625,0.46875 -0.171875,0 -0.265625,0 -0.265625,0.203125 C 0.390625,0 0.515625,0 0.53125,0 0.8125,0 1.515625,-0.03125 1.796875,-0.03125 2,-0.03125 2.21875,-0.015625 2.4375,-0.015625 2.65625,-0.015625 2.875,0 3.078125,0 3.15625,0 3.28125,0 3.28125,-0.203125 3.28125,-0.3125 3.1875,-0.3125 3,-0.3125 c -0.375,0 -0.640625,0 -0.640625,-0.171875 0,-0.0625 0.015625,-0.109375 0.015625,-0.171875 l 0.6875,-2.734375 h 3.03125 c -0.40625,1.65625 -0.640625,2.609375 -0.6875,2.75 C 5.3125,-0.3125 5.125,-0.3125 4.5,-0.3125 c -0.140625,0 -0.234375,0 -0.234375,0.203125 C 4.265625,0 4.390625,0 4.40625,0 4.6875,0 5.390625,-0.03125 5.671875,-0.03125 5.875,-0.03125 6.09375,-0.015625 6.3125,-0.015625 6.53125,-0.015625 6.75,0 6.953125,0 7.03125,0 7.15625,0 7.15625,-0.203125 7.15625,-0.3125 7.0625,-0.3125 6.875,-0.3125 c -0.359375,0 -0.640625,0 -0.640625,-0.171875 0,-0.0625 0.015625,-0.109375 0.03125,-0.171875 z m 0,0"
           id="path1885"
           inkscape:connector-curvature="0" />
      </symbol>
    </g>
    <marker
       inkscape:isstock="true"
       style="overflow:visible"
       id="Arrow1Send-5"
       refX="0"
       refY="0"
       orient="auto"
       inkscape:stockid="Arrow1Send">
      <path
         transform="matrix(-0.2,0,0,-0.2,-1.2,0)"
         style="fill:#000000;fill-opacity:1;fill-rule:evenodd;stroke:#000000;stroke-width:1.00000003pt;stroke-opacity:1"
         d="M 0,0 5,-5 -12.5,0 5,5 Z"
         id="path4042-6"
         inkscape:connector-curvature="0" />
    </marker>
    <marker
       inkscape:stockid="Arrow1Mend"
       orient="auto"
       refY="0"
       refX="0"
       id="Arrow1Mend-8"
       style="overflow:visible"
       inkscape:isstock="true">
      <path
         id="path1926-4"
         d="M 0,0 5,-5 -12.5,0 5,5 Z"
         style="fill:#000000;fill-opacity:1;fill-rule:evenodd;stroke:#000000;stroke-width:1.00000003pt;stroke-opacity:1"
         transform="matrix(-0.4,0,0,-0.4,-4,0)"
         inkscape:connector-curvature="0" />
    </marker>
  </defs>
  <sodipodi:namedview
     id="base"
     pagecolor="#ffffff"
     bordercolor="#666666"
     borderopacity="1.0"
     inkscape:pageopacity="0.0"
     inkscape:pageshadow="2"
     inkscape:zoom="7.9195959"
     inkscape:cx="30.578454"
     inkscape:cy="26.393041"
     inkscape:document-units="mm"
     inkscape:current-layer="layer1"
     showgrid="false"
     inkscape:window-width="1916"
     inkscape:window-height="1036"
     inkscape:window-x="0"
     inkscape:window-y="20"
     inkscape:window-maximized="0"
     fit-margin-top="0"
     fit-margin-left="0"
     fit-margin-right="0"
     fit-margin-bottom="0"
     inkscape:document-rotation="0"
     inkscape:snap-global="false" />
  <metadata
     id="metadata2012">
    <rdf:RDF>
      <cc:Work
         rdf:about="">
        <dc:format>image/svg+xml</dc:format>
        <dc:type
           rdf:resource="http://purl.org/dc/dcmitype/StillImage" />
        <dc:title></dc:title>
      </cc:Work>
    </rdf:RDF>
  </metadata>
  <g
     inkscape:label="Layer 1"
     inkscape:groupmode="layer"
     id="layer1"
     transform="translate(-54.351057,-10.977584)">
    <path
       d="m 54.351057,17.159851 h 9.516401"
       style="fill:none;stroke:#000000;stroke-width:0.13229167;stroke-linecap:butt;stroke-linejoin:miter;stroke-miterlimit:4;stroke-dasharray:none;stroke-opacity:1"
       id="path927-3-0-3-3"
       inkscape:connector-curvature="0" />
    <path
       d="m 54.351141,21.559239 h 9.516233"
       style="fill:none;stroke:#000000;stroke-width:0.13229167;stroke-linecap:butt;stroke-linejoin:miter;stroke-miterlimit:4;stroke-dasharray:none;stroke-opacity:1"
       id="path957-6-3-8-6"
       inkscape:connector-curvature="0" />
    <path
       d="m 54.351141,25.958637 h 9.516233"
       style="fill:none;stroke:#000000;stroke-width:0.13229167;stroke-linecap:butt;stroke-linejoin:miter;stroke-miterlimit:4;stroke-dasharray:none;stroke-opacity:1"
       id="path959-7-61-8-7"
       inkscape:connector-curvature="0" />
    <path
       d="M 61.225925,12.592985 V 27.641501"
       style="fill:#000000;stroke:#000000;stroke-width:0.13229167;stroke-linecap:butt;stroke-linejoin:miter;stroke-miterlimit:4;stroke-dasharray:none;stroke-opacity:1"
       id="path1029-1-3-3-5"
       inkscape:connector-curvature="0" />
    <path
       d="m 61.579534,17.158978 c 0,-0.19533 -0.158678,-0.35337 -0.353844,-0.35337 -0.194695,0 -0.353374,0.15804 -0.353374,0.35337 0,0.197076 0.158679,0.355116 0.353374,0.355116 0.195166,0 0.353844,-0.15804 0.353844,-0.355116"
       style="fill:#ffffff;fill-opacity:1;fill-rule:nonzero;stroke:#000000;stroke-width:0.11796385;stroke-miterlimit:4;stroke-dasharray:none"
       id="path1033-7-0-8-6"
       inkscape:connector-curvature="0" />
    <path
       d="m 61.579534,21.558048 c 0,-0.19517 -0.158678,-0.35337 -0.353844,-0.35337 -0.194694,0 -0.353374,0.158201 -0.353374,0.35337 0,0.197076 0.15868,0.355751 0.353374,0.355751 0.195166,0 0.353844,-0.158674 0.353844,-0.355751"
       style="fill:#000000;fill-opacity:1;fill-rule:nonzero;stroke:#000000;stroke-width:0.11796385;stroke-miterlimit:4;stroke-dasharray:none"
       id="path1035-0-6-60-2"
       inkscape:connector-curvature="0" />
    <path
       d="m 62.906055,25.959117 c 0,-0.927556 -0.75222,-1.679539 -1.67977,-1.679539 -0.92827,0 -1.68049,0.751983 -1.68049,1.679539 0,0.927553 0.75222,1.678578 1.68049,1.678578 0.92755,0 1.67977,-0.751026 1.67977,-1.678578"
       style="fill:none;stroke:#000000;stroke-width:0.13229167;stroke-linecap:butt;stroke-linejoin:miter;stroke-miterlimit:4;stroke-dasharray:none;stroke-opacity:1"
       id="path1031-2-3-1-9-8-3-3-3"
       inkscape:connector-curvature="0" />
    <path
       d="m 54.351057,12.60244 h 9.516401"
       style="fill:none;stroke:#000000;stroke-width:0.13229167;stroke-linecap:butt;stroke-linejoin:miter;stroke-miterlimit:4;stroke-dasharray:none;stroke-opacity:1"
       id="path927-3-0-3-3-0"
       inkscape:connector-curvature="0" />
    <path
       d="m 61.579534,12.601567 c 0,-0.19533 -0.158678,-0.353371 -0.353844,-0.353371 -0.194695,0 -0.353374,0.158041 -0.353374,0.353371 0,0.197075 0.158679,0.355116 0.353374,0.355116 0.195166,0 0.353844,-0.158041 0.353844,-0.355116"
       style="fill:#ffffff;fill-opacity:1;fill-rule:nonzero;stroke:#000000;stroke-width:0.11796385;stroke-miterlimit:4;stroke-dasharray:none"
       id="path1033-7-0-8-6-1"
       inkscape:connector-curvature="0" />
    <g
       transform="translate(-32.446315,-14.843411)"
       id="g1550-1-3"
       style="opacity:0.98000004;stroke-width:0.13229167;stroke-miterlimit:4;stroke-dasharray:none">
      <g
         transform="translate(2.100196,-4.3898215)"
         id="g1259-96-6"
         style="stroke-width:0.13229167;stroke-miterlimit:4;stroke-dasharray:none">
        <rect
           y="30.276962"
           x="85.477074"
           height="3.1174204"
           width="3.1174204"
           id="rect3884-2-9-5-7-4-6-06-4-2-7"
           style="fill:#ffffff;fill-opacity:1;stroke:#000000;stroke-width:0.13229167;stroke-miterlimit:4;stroke-dasharray:none;stroke-dashoffset:0;stroke-opacity:1" />
        <g
           id="g3723-8-1-5"
           transform="matrix(0.20697248,0,0,0.20697248,67.060672,15.576588)"
           inkscape:label=""
           style="stroke-width:0.63917518;stroke-miterlimit:4;stroke-dasharray:none">
          <g
             id="g6793-4-2-3"
             style="stroke-width:0.63917518;stroke-miterlimit:4;stroke-dasharray:none">
            <g
               style="fill:#000000;fill-opacity:1;stroke-width:0.63917518;stroke-miterlimit:4;stroke-dasharray:none"
               id="g7743-5-07-5">
              <use
                 xlink:href="#symbol5772"
                 x="91.925003"
                 y="81.962997"
                 id="use9865-0-3-6"
                 width="100%"
                 height="100%"
                 style="stroke-width:0.63917518;stroke-miterlimit:4;stroke-dasharray:none" />
            </g>
          </g>
        </g>
      </g>
    </g>
    <g
       transform="translate(-32.446315,-10.286)"
       id="g1550-1-3-6"
       style="opacity:0.98000004;stroke-width:0.13229167;stroke-miterlimit:4;stroke-dasharray:none">
      <g
         transform="translate(2.100196,-4.3898215)"
         id="g1259-96-6-2"
         style="stroke-width:0.13229167;stroke-miterlimit:4;stroke-dasharray:none">
        <rect
           y="30.276962"
           x="85.477074"
           height="3.1174204"
           width="3.1174204"
           id="rect3884-2-9-5-7-4-6-06-4-2-7-8"
           style="fill:#ffffff;fill-opacity:1;stroke:#000000;stroke-width:0.13229167;stroke-miterlimit:4;stroke-dasharray:none;stroke-dashoffset:0;stroke-opacity:1" />
        <g
           id="g3723-8-1-5-9"
           transform="matrix(0.20697248,0,0,0.20697248,67.060672,15.576588)"
           inkscape:label=""
           style="stroke-width:0.63917518;stroke-miterlimit:4;stroke-dasharray:none">
          <g
             id="g6793-4-2-3-6"
             style="stroke-width:0.63917518;stroke-miterlimit:4;stroke-dasharray:none">
            <g
               style="fill:#000000;fill-opacity:1;stroke-width:0.63917518;stroke-miterlimit:4;stroke-dasharray:none"
               id="g7743-5-07-5-0">
              <use
                 xlink:href="#symbol5772"
                 x="91.925003"
                 y="81.962997"
                 id="use9865-0-3-6-7"
                 width="100%"
                 height="100%"
                 style="stroke-width:0.63917518;stroke-miterlimit:4;stroke-dasharray:none" />
            </g>
          </g>
        </g>
      </g>
    </g>
    <g
       transform="translate(-32.446315,-5.886612)"
       id="g1550-1-3-0"
       style="opacity:0.98000004;stroke-width:0.13229167;stroke-miterlimit:4;stroke-dasharray:none">
      <g
         transform="translate(2.100196,-4.3898215)"
         id="g1259-96-6-1"
         style="stroke-width:0.13229167;stroke-miterlimit:4;stroke-dasharray:none">
        <rect
           y="30.276962"
           x="85.477074"
           height="3.1174204"
           width="3.1174204"
           id="rect3884-2-9-5-7-4-6-06-4-2-7-0"
           style="fill:#ffffff;fill-opacity:1;stroke:#000000;stroke-width:0.13229167;stroke-miterlimit:4;stroke-dasharray:none;stroke-dashoffset:0;stroke-opacity:1" />
        <g
           id="g3723-8-1-5-1"
           transform="matrix(0.20697248,0,0,0.20697248,67.060672,15.576588)"
           inkscape:label=""
           style="stroke-width:0.63917518;stroke-miterlimit:4;stroke-dasharray:none">
          <g
             id="g6793-4-2-3-3"
             style="stroke-width:0.63917518;stroke-miterlimit:4;stroke-dasharray:none">
            <g
               style="fill:#000000;fill-opacity:1;stroke-width:0.63917518;stroke-miterlimit:4;stroke-dasharray:none"
               id="g7743-5-07-5-7">
              <use
                 xlink:href="#symbol5772"
                 x="91.925003"
                 y="81.962997"
                 id="use9865-0-3-6-72"
                 width="100%"
                 height="100%"
                 style="stroke-width:0.63917518;stroke-miterlimit:4;stroke-dasharray:none" />
            </g>
          </g>
        </g>
      </g>
    </g>
  </g>
</svg>
