<?xml version="1.0" encoding="UTF-8" standalone="no"?>
<!-- Created with Inkscape (http://www.inkscape.org/) -->

<svg
   xmlns:dc="http://purl.org/dc/elements/1.1/"
   xmlns:cc="http://creativecommons.org/ns#"
   xmlns:rdf="http://www.w3.org/1999/02/22-rdf-syntax-ns#"
   xmlns:svg="http://www.w3.org/2000/svg"
   xmlns="http://www.w3.org/2000/svg"
   xmlns:sodipodi="http://sodipodi.sourceforge.net/DTD/sodipodi-0.dtd"
   xmlns:inkscape="http://www.inkscape.org/namespaces/inkscape"
   version="1.1"
   id="svg4762"
   xml:space="preserve"
   width="201.22485"
   height="79.87812"
   viewBox="0 0 201.22485 79.87812"
   sodipodi:docname="toffoli-decomp.svg"
   inkscape:version="0.92.5 (2060ec1f9f, 2020-04-08)"><metadata
     id="metadata4768"><rdf:RDF><cc:Work
         rdf:about=""><dc:format>image/svg+xml</dc:format><dc:type
           rdf:resource="http://purl.org/dc/dcmitype/StillImage" /><dc:title></dc:title></cc:Work></rdf:RDF></metadata><defs
     id="defs4766" /><sodipodi:namedview
     pagecolor="#ffffff"
     bordercolor="#666666"
     borderopacity="1"
     objecttolerance="10"
     gridtolerance="10"
     guidetolerance="10"
     inkscape:pageopacity="0"
     inkscape:pageshadow="2"
     inkscape:window-width="1916"
     inkscape:window-height="1036"
     id="namedview4764"
     showgrid="false"
     inkscape:zoom="3.5582086"
     inkscape:cx="112.46953"
     inkscape:cy="94.705201"
     inkscape:window-x="0"
     inkscape:window-y="20"
     inkscape:window-maximized="0"
     inkscape:current-layer="g4770" /><g
     id="g4770"
     inkscape:groupmode="layer"
     inkscape:label="toffoli"
     transform="matrix(1.3333333,0,0,1.3333333,0,2.3302864e-6)"><g
       id="g4772"><g
         id="g4774"><path
           d="M 0,16.738 H 150.918"
           style="fill:none;stroke:#000000;stroke-width:0.75;stroke-linecap:butt;stroke-linejoin:miter;stroke-miterlimit:4;stroke-dasharray:none;stroke-opacity:1"
           id="path4776"
           inkscape:connector-curvature="0" /></g><g
         id="g4778"><path
           d="M 0,29.211 H 150.918"
           style="fill:none;stroke:#000000;stroke-width:0.75;stroke-linecap:butt;stroke-linejoin:miter;stroke-miterlimit:4;stroke-dasharray:none;stroke-opacity:1"
           id="path4780"
           inkscape:connector-curvature="0" /></g><g
         id="g4782"><path
           d="M 0,41.68 H 150.918"
           style="fill:none;stroke:#000000;stroke-width:0.75;stroke-linecap:butt;stroke-linejoin:miter;stroke-miterlimit:4;stroke-dasharray:none;stroke-opacity:1"
           id="path4784"
           inkscape:connector-curvature="0" /></g><g
         id="g4786"><path
           d="m 18.629,37.262 h 8.836 v 8.836 h -8.836 z"
           style="fill:#ffffff;fill-opacity:1;fill-rule:nonzero;stroke:#000000;stroke-width:0.61857498;stroke-linecap:butt;stroke-linejoin:miter;stroke-miterlimit:4;stroke-dasharray:none;stroke-opacity:1"
           id="path4788"
           inkscape:connector-curvature="0" /></g><path
         d="m 23.43,40.094 v -0.008 l 0.004,-0.008 v -0.012 l 0.007,-0.031 v -0.012 l 0.012,-0.035 V 39.98 l 0.004,-0.007 0.004,-0.012 0.004,-0.008 v -0.004 l 0.004,-0.008 0.004,-0.003 V 39.93 l 0.007,-0.008 0.004,-0.008 0.012,-0.012 v -0.004 h 0.008 l 0.004,-0.003 0.008,-0.004 h 0.004 l 0.007,-0.004 0.004,-0.004 h 0.012 l 0.008,-0.004 h 0.008 c 0.05,-0.016 0.246,-0.016 0.371,-0.016 0.597,0 0.863,0.028 0.863,0.489 0,0.086 -0.023,0.316 -0.047,0.472 -0.004,0.024 -0.019,0.094 -0.019,0.11 0,0.039 0.019,0.078 0.07,0.078 0.07,0 0.078,-0.047 0.09,-0.137 l 0.16,-1.027 c 0.008,-0.024 0.015,-0.086 0.015,-0.102 0,-0.066 -0.062,-0.066 -0.16,-0.066 h -3.289 c -0.14,0 -0.148,0.008 -0.187,0.121 L 21.07,40.84 c -0.008,0.015 -0.035,0.094 -0.035,0.109 0,0.035 0.027,0.063 0.07,0.063 0.059,0 0.067,-0.028 0.102,-0.121 0.316,-0.918 0.473,-1.028 1.348,-1.028 h 0.23 c 0.168,0 0.168,0.028 0.168,0.071 0,0.039 -0.015,0.109 -0.023,0.125 l -0.793,3.16 c -0.055,0.222 -0.071,0.285 -0.707,0.285 -0.211,0 -0.246,0 -0.246,0.113 0,0.071 0.062,0.071 0.097,0.071 0.164,0 0.328,-0.012 0.489,-0.012 0.164,0 0.339,-0.008 0.503,-0.008 0.165,0 0.329,0.008 0.493,0.008 0.172,0 0.347,0.012 0.511,0.012 0.063,0 0.133,0 0.133,-0.118 0,-0.066 -0.047,-0.066 -0.203,-0.066 -0.148,0 -0.223,0 -0.379,-0.012 -0.172,-0.019 -0.219,-0.035 -0.219,-0.129 0,-0.008 0,-0.039 0.024,-0.125 z"
         style="fill:#000000;fill-opacity:1;fill-rule:evenodd;stroke:none"
         id="path4790"
         inkscape:connector-curvature="0" /><g
         id="g4792"><path
           d="m 38.746,29.215 c 0,0.832 -0.676,1.508 -1.508,1.508 -0.832,0 -1.508,-0.676 -1.508,-1.508 0,-0.844 0.676,-1.516 1.508,-1.516 0.832,0 1.508,0.672 1.508,1.516"
           style="fill:#000000;fill-opacity:1;fill-rule:nonzero;stroke:#000000;stroke-width:0.0677129;stroke-linecap:butt;stroke-linejoin:miter;stroke-miterlimit:4;stroke-dasharray:none;stroke-opacity:1"
           id="path4794"
           inkscape:connector-curvature="0" /></g><g
         id="g4796"><path
           d="m 41.441,16.738 c 0,2.321 -1.882,4.203 -4.203,4.203 -2.32,0 -4.203,-1.882 -4.203,-4.203 0,-2.32 1.883,-4.199 4.203,-4.199 2.321,0 4.203,1.879 4.203,4.199"
           style="fill:none;stroke:#000000;stroke-width:0.66196698;stroke-linecap:butt;stroke-linejoin:miter;stroke-miterlimit:4;stroke-dasharray:none;stroke-opacity:1"
           id="path4798"
           inkscape:connector-curvature="0" /></g><g
         id="g4800"><path
           d="m 97.348,37.262 h 8.84 v 8.836 h -8.84 z"
           style="fill:#ffffff;fill-opacity:1;fill-rule:nonzero;stroke:#000000;stroke-width:0.61857498;stroke-linecap:butt;stroke-linejoin:miter;stroke-miterlimit:4;stroke-dasharray:none;stroke-opacity:1"
           id="path4802"
           inkscape:connector-curvature="0" /></g><path
         d="m 102.148,40.094 0.004,-0.008 v -0.008 l 0.004,-0.012 0.004,-0.015 v -0.016 l 0.008,-0.023 V 40 l 0.004,-0.012 0.008,-0.015 v -0.012 l 0.004,-0.008 0.004,-0.004 0.003,-0.008 v -0.003 l 0.004,-0.008 0.004,-0.004 v -0.004 l 0.012,-0.012 0.004,-0.008 0.004,-0.004 h 0.004 l 0.007,-0.003 0.004,-0.004 h 0.008 l 0.004,-0.004 0.008,-0.004 h 0.008 l 0.011,-0.004 h 0.004 c 0.055,-0.016 0.25,-0.016 0.375,-0.016 0.598,0 0.864,0.028 0.864,0.489 0,0.086 -0.024,0.316 -0.047,0.472 -0.008,0.024 -0.02,0.094 -0.02,0.11 0,0.039 0.02,0.078 0.071,0.078 0.066,0 0.078,-0.047 0.085,-0.137 l 0.165,-1.027 c 0.007,-0.024 0.011,-0.082 0.011,-0.102 0,-0.066 -0.058,-0.066 -0.16,-0.066 h -3.285 c -0.145,0 -0.148,0.008 -0.191,0.121 l -0.352,1.039 c -0.012,0.015 -0.039,0.094 -0.039,0.109 0,0.035 0.031,0.067 0.074,0.067 0.059,0 0.063,-0.032 0.098,-0.125 0.32,-0.918 0.472,-1.028 1.351,-1.028 h 0.231 c 0.164,0 0.164,0.028 0.164,0.071 0,0.039 -0.016,0.109 -0.02,0.125 l -0.793,3.164 c -0.054,0.218 -0.074,0.281 -0.707,0.281 -0.214,0 -0.25,0 -0.25,0.117 0,0.067 0.067,0.067 0.102,0.067 0.16,0 0.328,-0.008 0.484,-0.008 0.168,0 0.34,-0.012 0.504,-0.012 0.168,0 0.332,0.012 0.492,0.012 0.172,0 0.352,0.008 0.516,0.008 0.059,0 0.129,0 0.129,-0.118 0,-0.066 -0.047,-0.066 -0.199,-0.066 -0.149,0 -0.227,0 -0.379,-0.012 -0.172,-0.019 -0.219,-0.035 -0.219,-0.129 0,-0.008 0,-0.039 0.02,-0.125 z"
         style="fill:#000000;fill-opacity:1;fill-rule:evenodd;stroke:none"
         id="path4804"
         inkscape:connector-curvature="0" /><g
         id="g4806"><path
           d="m 69.059,24.793 h 8.84 v 8.836 h -8.84 z"
           style="fill:#ffffff;fill-opacity:1;fill-rule:nonzero;stroke:#000000;stroke-width:0.61857498;stroke-linecap:butt;stroke-linejoin:miter;stroke-miterlimit:4;stroke-dasharray:none;stroke-opacity:1"
           id="path4808"
           inkscape:connector-curvature="0" /></g><path
         d="m 73.859,27.621 0.004,-0.008 v -0.004 l 0.004,-0.015 v -0.016 l 0.004,-0.012 0.004,-0.015 0.004,-0.012 v -0.012 l 0.004,-0.011 0.008,-0.016 v -0.008 l 0.007,-0.015 v -0.004 l 0.004,-0.008 0.008,-0.008 v -0.008 l 0.008,-0.004 0.004,-0.007 0.012,-0.012 h 0.007 l 0.004,-0.004 0.008,-0.004 h 0.004 l 0.004,-0.004 h 0.008 l 0.004,-0.004 h 0.011 l 0.004,-0.004 c 0.055,-0.015 0.25,-0.015 0.371,-0.015 0.602,0 0.868,0.027 0.868,0.488 0,0.086 -0.024,0.32 -0.047,0.473 -0.008,0.023 -0.02,0.097 -0.02,0.113 0,0.035 0.02,0.078 0.07,0.078 0.067,0 0.079,-0.047 0.086,-0.137 l 0.161,-1.031 c 0.011,-0.023 0.015,-0.082 0.015,-0.102 0,-0.062 -0.058,-0.062 -0.16,-0.062 h -3.285 c -0.145,0 -0.149,0.004 -0.192,0.117 L 71.5,28.371 c -0.008,0.012 -0.035,0.094 -0.035,0.106 0,0.035 0.027,0.066 0.07,0.066 0.059,0 0.067,-0.031 0.102,-0.125 0.316,-0.918 0.472,-1.023 1.347,-1.023 h 0.231 c 0.168,0 0.168,0.023 0.168,0.07 0,0.035 -0.02,0.105 -0.024,0.121 l -0.793,3.164 c -0.054,0.219 -0.07,0.285 -0.707,0.285 -0.211,0 -0.246,0 -0.246,0.113 0,0.071 0.063,0.071 0.098,0.071 0.164,0 0.328,-0.012 0.488,-0.012 0.164,0 0.34,-0.008 0.504,-0.008 0.164,0 0.328,0.008 0.492,0.008 0.172,0 0.348,0.012 0.512,0.012 0.063,0 0.133,0 0.133,-0.121 0,-0.063 -0.047,-0.063 -0.203,-0.063 -0.149,0 -0.223,0 -0.379,-0.012 -0.172,-0.019 -0.219,-0.035 -0.219,-0.128 0,-0.012 0,-0.04 0.023,-0.125 z"
         style="fill:#000000;fill-opacity:1;fill-rule:evenodd;stroke:none"
         id="path4810"
         inkscape:connector-curvature="0" /><path
         d="m 76.422,26.52 0.012,0.003 h 0.023 l 0.012,0.004 h 0.023 l 0.012,0.004 h 0.004 l 0.008,0.004 h 0.011 l 0.008,0.004 h 0.02 l 0.007,0.004 h 0.008 l 0.008,0.004 h 0.008 l 0.012,0.004 h 0.007 l 0.008,0.004 h 0.008 l 0.024,0.007 h 0.011 c 0.133,0.04 0.231,0.067 0.309,0.067 0.164,0 0.18,-0.125 0.18,-0.164 0,-0.031 -0.02,-0.16 -0.18,-0.16 -0.078,0 -0.176,0.023 -0.309,0.062 -0.125,0.031 -0.168,0.035 -0.23,0.043 0.012,-0.144 0.039,-0.316 0.058,-0.445 0.016,-0.086 0.055,-0.293 0.055,-0.438 0,-0.125 -0.059,-0.191 -0.16,-0.191 -0.09,0 -0.164,0.047 -0.164,0.191 0,0.133 0.035,0.344 0.058,0.485 0.012,0.043 0.047,0.246 0.055,0.398 -0.062,-0.008 -0.105,-0.012 -0.226,-0.043 -0.137,-0.039 -0.235,-0.062 -0.313,-0.062 -0.16,0 -0.176,0.125 -0.176,0.16 0,0.035 0.016,0.164 0.176,0.164 0.078,0 0.176,-0.027 0.313,-0.067 0.121,-0.027 0.164,-0.035 0.226,-0.042 -0.008,0.105 -0.039,0.234 -0.058,0.324 -0.055,0.254 -0.055,0.285 -0.055,0.5 0,0.797 0.082,1.648 0.09,1.73 0.007,0.039 0.015,0.063 0.074,0.063 0.062,0 0.066,-0.024 0.07,-0.082 0,-0.004 0.035,-0.367 0.051,-0.617 0.02,-0.364 0.039,-0.731 0.039,-1.094 0,-0.215 0,-0.246 -0.059,-0.508 -0.007,-0.047 -0.046,-0.211 -0.054,-0.316 z"
         style="fill:#000000;fill-opacity:1;fill-rule:evenodd;stroke:none"
         id="path4812"
         inkscape:connector-curvature="0" /><g
         id="g4814"><path
           d="m 18.629,24.793 h 8.836 v 8.836 h -8.836 z"
           style="fill:#ffffff;fill-opacity:1;fill-rule:nonzero;stroke:#000000;stroke-width:0.61857498;stroke-linecap:butt;stroke-linejoin:miter;stroke-miterlimit:4;stroke-dasharray:none;stroke-opacity:1"
           id="path4816"
           inkscape:connector-curvature="0" /></g><path
         d="m 23.43,27.621 v -0.008 l 0.004,-0.004 v -0.015 l 0.004,-0.016 0.003,-0.012 v -0.015 l 0.012,-0.035 v -0.008 l 0.012,-0.024 v -0.007 l 0.004,-0.004 0.004,-0.008 v -0.004 l 0.004,-0.004 0.003,-0.008 0.004,-0.004 0.004,-0.007 0.008,-0.004 V 27.43 l 0.008,-0.004 h 0.004 l 0.008,-0.004 0.004,-0.004 h 0.007 l 0.004,-0.004 h 0.004 l 0.008,-0.004 h 0.008 l 0.008,-0.004 c 0.05,-0.015 0.246,-0.015 0.371,-0.015 0.597,0 0.863,0.027 0.863,0.488 0,0.086 -0.023,0.32 -0.047,0.473 -0.004,0.023 -0.019,0.097 -0.019,0.113 0,0.035 0.019,0.078 0.07,0.078 0.07,0 0.078,-0.047 0.09,-0.137 l 0.16,-1.031 c 0.008,-0.023 0.015,-0.082 0.015,-0.102 0,-0.062 -0.062,-0.062 -0.16,-0.062 h -3.289 c -0.14,0 -0.148,0.004 -0.187,0.117 l -0.356,1.043 c -0.008,0.012 -0.035,0.094 -0.035,0.106 0,0.035 0.027,0.066 0.07,0.066 0.059,0 0.067,-0.031 0.102,-0.125 0.316,-0.918 0.473,-1.023 1.348,-1.023 h 0.23 c 0.168,0 0.168,0.023 0.168,0.07 0,0.035 -0.019,0.105 -0.023,0.125 l -0.793,3.16 c -0.055,0.219 -0.071,0.285 -0.707,0.285 -0.211,0 -0.246,0 -0.246,0.113 0,0.071 0.062,0.071 0.097,0.071 0.164,0 0.328,-0.012 0.489,-0.012 0.164,0 0.339,-0.008 0.503,-0.008 0.165,0 0.329,0.008 0.493,0.008 0.172,0 0.347,0.012 0.511,0.012 0.063,0 0.133,0 0.133,-0.117 0,-0.067 -0.047,-0.067 -0.203,-0.067 -0.148,0 -0.223,0 -0.379,-0.012 -0.172,-0.019 -0.219,-0.035 -0.219,-0.128 0,-0.008 0,-0.04 0.024,-0.125 z"
         style="fill:#000000;fill-opacity:1;fill-rule:evenodd;stroke:none"
         id="path4818"
         inkscape:connector-curvature="0" /><g
         id="g4820"><path
           d="m 18.629,12.32 h 8.836 v 8.836 h -8.836 z"
           style="fill:#ffffff;fill-opacity:1;fill-rule:nonzero;stroke:#000000;stroke-width:0.61857498;stroke-linecap:butt;stroke-linejoin:miter;stroke-miterlimit:4;stroke-dasharray:none;stroke-opacity:1"
           id="path4822"
           inkscape:connector-curvature="0" /></g><path
         d="m 23.43,15.152 v -0.007 l 0.004,-0.008 v -0.012 l 0.007,-0.031 0.004,-0.012 V 15.07 l 0.008,-0.023 0.004,-0.008 v -0.008 l 0.004,-0.011 0.004,-0.008 V 15.008 L 23.469,15 l 0.004,-0.004 0.004,-0.008 v -0.004 l 0.011,-0.011 v -0.004 l 0.008,-0.008 v -0.004 h 0.008 l 0.004,-0.004 0.008,-0.004 h 0.004 l 0.007,-0.004 0.004,-0.004 h 0.012 l 0.008,-0.003 h 0.008 c 0.05,-0.016 0.25,-0.016 0.371,-0.016 0.597,0 0.863,0.027 0.863,0.488 0,0.086 -0.02,0.317 -0.047,0.473 -0.004,0.023 -0.019,0.094 -0.019,0.109 0,0.039 0.019,0.078 0.07,0.078 0.07,0 0.078,-0.047 0.09,-0.136 l 0.16,-1.028 c 0.008,-0.023 0.015,-0.086 0.015,-0.101 0,-0.067 -0.058,-0.067 -0.16,-0.067 h -3.285 c -0.144,0 -0.148,0.008 -0.191,0.121 l -0.356,1.039 c -0.008,0.016 -0.035,0.094 -0.035,0.11 0,0.035 0.027,0.066 0.07,0.066 0.059,0 0.067,-0.031 0.102,-0.125 0.32,-0.918 0.473,-1.027 1.348,-1.027 h 0.23 c 0.168,0 0.168,0.027 0.168,0.07 0,0.039 -0.015,0.11 -0.023,0.125 l -0.793,3.16 c -0.051,0.223 -0.071,0.285 -0.703,0.285 -0.215,0 -0.25,0 -0.25,0.114 0,0.07 0.062,0.07 0.101,0.07 0.16,0 0.324,-0.012 0.485,-0.012 0.168,0 0.339,-0.007 0.503,-0.007 0.165,0 0.332,0.007 0.493,0.007 0.172,0 0.347,0.012 0.515,0.012 0.059,0 0.129,0 0.129,-0.117 0,-0.067 -0.047,-0.067 -0.203,-0.067 -0.148,0 -0.223,0 -0.375,-0.011 -0.176,-0.02 -0.223,-0.035 -0.223,-0.129 0,-0.008 0,-0.039 0.024,-0.125 z"
         style="fill:#000000;fill-opacity:1;fill-rule:evenodd;stroke:none"
         id="path4824"
         inkscape:connector-curvature="0" /><g
         id="g4826"><path
           d="m 5.59,37.262 h 8.836 v 8.836 H 5.59 Z"
           style="fill:#ffffff;fill-opacity:1;fill-rule:nonzero;stroke:#000000;stroke-width:0.61857498;stroke-linecap:butt;stroke-linejoin:miter;stroke-miterlimit:4;stroke-dasharray:none;stroke-opacity:1"
           id="path4828"
           inkscape:connector-curvature="0" /></g><path
         d="m 11.793,40.121 0.008,-0.019 0.004,-0.02 0.007,-0.031 0.004,-0.02 0.008,-0.015 0.004,-0.012 0.004,-0.016 0.008,-0.011 0.004,-0.012 0.015,-0.024 0.012,-0.007 0.008,-0.012 0.012,-0.008 0.007,-0.008 0.016,-0.008 0.012,-0.007 0.015,-0.004 0.016,-0.008 0.039,-0.008 0.008,-0.004 h 0.012 l 0.011,-0.004 h 0.012 l 0.012,-0.004 h 0.011 l 0.012,-0.004 h 0.059 l 0.015,-0.003 h 0.141 c 0.152,0 0.199,0 0.199,-0.122 0,-0.062 -0.062,-0.062 -0.082,-0.062 -0.164,0 -0.59,0.02 -0.754,0.02 -0.172,0 -0.59,-0.02 -0.761,-0.02 -0.047,0 -0.114,0 -0.114,0.117 0,0.067 0.055,0.067 0.168,0.067 0.012,0 0.125,0 0.223,0.007 0.105,0.016 0.16,0.02 0.16,0.098 0,0.023 -0.004,0.035 -0.023,0.109 l -0.356,1.442 H 9.152 L 9.5,40.121 c 0.051,-0.211 0.07,-0.269 0.496,-0.269 0.152,0 0.199,0 0.199,-0.122 0,-0.062 -0.062,-0.062 -0.082,-0.062 -0.164,0 -0.59,0.02 -0.754,0.02 -0.171,0 -0.589,-0.02 -0.761,-0.02 -0.047,0 -0.114,0 -0.114,0.117 0,0.067 0.055,0.067 0.164,0.067 0.016,0 0.125,0 0.227,0.007 0.105,0.016 0.16,0.02 0.16,0.098 0,0.023 -0.008,0.043 -0.023,0.109 l -0.789,3.168 c -0.063,0.231 -0.075,0.278 -0.539,0.278 -0.106,0 -0.161,0 -0.161,0.117 0,0.066 0.075,0.066 0.082,0.066 0.165,0 0.586,-0.019 0.75,-0.019 0.125,0 0.254,0.008 0.379,0.008 0.129,0 0.258,0.011 0.383,0.011 0.047,0 0.117,0 0.117,-0.117 0,-0.066 -0.054,-0.066 -0.164,-0.066 -0.218,0 -0.382,0 -0.382,-0.106 0,-0.035 0.011,-0.062 0.015,-0.097 l 0.402,-1.618 h 1.797 c -0.246,0.977 -0.382,1.539 -0.406,1.625 -0.058,0.192 -0.172,0.196 -0.535,0.196 -0.09,0 -0.141,0 -0.141,0.117 0,0.066 0.071,0.066 0.082,0.066 0.164,0 0.582,-0.019 0.746,-0.019 0.125,0 0.254,0.008 0.379,0.008 0.129,0 0.258,0.011 0.383,0.011 0.047,0 0.117,0 0.117,-0.117 0,-0.066 -0.05,-0.066 -0.164,-0.066 -0.218,0 -0.383,0 -0.383,-0.106 0,-0.035 0.012,-0.062 0.016,-0.097 z"
         style="fill:#000000;fill-opacity:1;fill-rule:evenodd;stroke:none"
         id="path4830"
         inkscape:connector-curvature="0" /><g
         id="g4832"><path
           d="M 37.238,30.461 V 12.516"
           style="fill:none;stroke:#000000;stroke-width:0.75;stroke-linecap:butt;stroke-linejoin:miter;stroke-miterlimit:4;stroke-dasharray:none;stroke-opacity:1"
           id="path4834"
           inkscape:connector-curvature="0" /></g><g
         id="g4836"><path
           d="m 50.562,41.684 c 0,0.836 -0.675,1.507 -1.507,1.507 -0.832,0 -1.508,-0.671 -1.508,-1.507 0,-0.84 0.676,-1.516 1.508,-1.516 0.832,0 1.507,0.676 1.507,1.516"
           style="fill:#000000;fill-opacity:1;fill-rule:nonzero;stroke:#000000;stroke-width:0.0677129;stroke-linecap:butt;stroke-linejoin:miter;stroke-miterlimit:4;stroke-dasharray:none;stroke-opacity:1"
           id="path4838"
           inkscape:connector-curvature="0" /></g><g
         id="g4840"><path
           d="m 53.258,29.211 c 0,2.32 -1.883,4.199 -4.203,4.199 -2.321,0 -4.203,-1.879 -4.203,-4.199 0,-2.324 1.882,-4.203 4.203,-4.203 2.32,0 4.203,1.879 4.203,4.203"
           style="fill:none;stroke:#000000;stroke-width:0.66196698;stroke-linecap:butt;stroke-linejoin:miter;stroke-miterlimit:4;stroke-dasharray:none;stroke-opacity:1"
           id="path4842"
           inkscape:connector-curvature="0" /></g><g
         id="g4844"><path
           d="M 49.055,42.84 V 24.895"
           style="fill:none;stroke:#000000;stroke-width:0.75;stroke-linecap:butt;stroke-linejoin:miter;stroke-miterlimit:4;stroke-dasharray:none;stroke-opacity:1"
           id="path4846"
           inkscape:connector-curvature="0" /></g><g
         id="g4848"><path
           d="m 63.254,16.734 c 0,-0.832 -0.676,-1.507 -1.512,-1.507 -0.828,0 -1.508,0.675 -1.508,1.507 0,0.844 0.68,1.516 1.508,1.516 0.836,0 1.512,-0.672 1.512,-1.516"
           style="fill:#000000;fill-opacity:1;fill-rule:nonzero;stroke:#000000;stroke-width:0.0677129;stroke-linecap:butt;stroke-linejoin:miter;stroke-miterlimit:4;stroke-dasharray:none;stroke-opacity:1"
           id="path4850"
           inkscape:connector-curvature="0" /></g><g
         id="g4852"><path
           d="m 65.949,41.684 c 0,-2.321 -1.883,-4.204 -4.203,-4.204 -2.324,0 -4.203,1.883 -4.203,4.204 0,2.32 1.879,4.199 4.203,4.199 2.32,0 4.203,-1.879 4.203,-4.199"
           style="fill:none;stroke:#000000;stroke-width:0.66196698;stroke-linecap:butt;stroke-linejoin:miter;stroke-miterlimit:4;stroke-dasharray:none;stroke-opacity:1"
           id="path4854"
           inkscape:connector-curvature="0" /></g><g
         id="g4856"><path
           d="M 61.746,17.102 V 45.75"
           style="fill:none;stroke:#000000;stroke-width:0.75;stroke-linecap:butt;stroke-linejoin:miter;stroke-miterlimit:4;stroke-dasharray:none;stroke-opacity:1"
           id="path4858"
           inkscape:connector-curvature="0" /></g><g
         id="g4860"><path
           d="m 88.547,16.734 c 0,-0.832 -0.676,-1.507 -1.508,-1.507 -0.832,0 -1.508,0.675 -1.508,1.507 0,0.844 0.676,1.516 1.508,1.516 0.832,0 1.508,-0.672 1.508,-1.516"
           style="fill:#000000;fill-opacity:1;fill-rule:nonzero;stroke:#000000;stroke-width:0.0677129;stroke-linecap:butt;stroke-linejoin:miter;stroke-miterlimit:4;stroke-dasharray:none;stroke-opacity:1"
           id="path4862"
           inkscape:connector-curvature="0" /></g><g
         id="g4864"><path
           d="m 91.242,29.211 c 0,-2.32 -1.883,-4.203 -4.203,-4.203 -2.32,0 -4.203,1.883 -4.203,4.203 0,2.32 1.883,4.199 4.203,4.199 2.32,0 4.203,-1.879 4.203,-4.199"
           style="fill:none;stroke:#000000;stroke-width:0.66196698;stroke-linecap:butt;stroke-linejoin:miter;stroke-miterlimit:4;stroke-dasharray:none;stroke-opacity:1"
           id="path4866"
           inkscape:connector-curvature="0" /></g><g
         id="g4868"><path
           d="M 87.039,15.535 V 33.48"
           style="fill:none;stroke:#000000;stroke-width:0.75;stroke-linecap:butt;stroke-linejoin:miter;stroke-miterlimit:4;stroke-dasharray:none;stroke-opacity:1"
           id="path4870"
           inkscape:connector-curvature="0" /></g><g
         id="g4872"><path
           d="m 97.406,12.32 h 8.836 v 8.836 h -8.836 z"
           style="fill:#ffffff;fill-opacity:1;fill-rule:nonzero;stroke:#000000;stroke-width:0.61857498;stroke-linecap:butt;stroke-linejoin:miter;stroke-miterlimit:4;stroke-dasharray:none;stroke-opacity:1"
           id="path4874"
           inkscape:connector-curvature="0" /></g><path
         d="m 102.207,15.152 v -0.007 l 0.004,-0.008 v -0.012 l 0.008,-0.031 v -0.012 l 0.011,-0.035 v -0.008 l 0.004,-0.008 0.004,-0.011 0.004,-0.008 V 15.008 L 102.246,15 102.25,14.996 v -0.008 l 0.008,-0.008 0.004,-0.007 0.004,-0.004 0.004,-0.008 0.003,-0.004 h 0.008 l 0.004,-0.004 0.008,-0.004 h 0.004 l 0.004,-0.004 0.008,-0.004 h 0.011 l 0.008,-0.003 h 0.004 c 0.055,-0.016 0.25,-0.016 0.375,-0.016 0.598,0 0.863,0.027 0.863,0.488 0,0.086 -0.023,0.317 -0.047,0.473 -0.003,0.023 -0.019,0.094 -0.019,0.109 0,0.039 0.019,0.078 0.07,0.078 0.067,0 0.078,-0.047 0.09,-0.136 l 0.16,-1.028 c 0.008,-0.023 0.016,-0.086 0.016,-0.101 0,-0.067 -0.063,-0.067 -0.16,-0.067 h -3.289 c -0.141,0 -0.149,0.008 -0.188,0.121 l -0.355,1.039 c -0.012,0.016 -0.039,0.094 -0.039,0.11 0,0.035 0.031,0.066 0.074,0.066 0.058,0 0.062,-0.031 0.097,-0.125 0.321,-0.918 0.473,-1.027 1.352,-1.027 h 0.23 c 0.165,0 0.165,0.027 0.165,0.07 0,0.039 -0.016,0.11 -0.02,0.125 l -0.793,3.16 c -0.055,0.223 -0.074,0.285 -0.707,0.285 -0.215,0 -0.25,0 -0.25,0.114 0,0.07 0.066,0.07 0.102,0.07 0.16,0 0.328,-0.012 0.484,-0.012 0.168,0 0.34,-0.007 0.504,-0.007 0.168,0 0.332,0.007 0.492,0.007 0.172,0 0.352,0.012 0.516,0.012 0.058,0 0.129,0 0.129,-0.117 0,-0.067 -0.047,-0.067 -0.2,-0.067 -0.148,0 -0.226,0 -0.379,-0.011 -0.171,-0.02 -0.218,-0.035 -0.218,-0.129 0,-0.008 0,-0.039 0.019,-0.125 z"
         style="fill:#000000;fill-opacity:1;fill-rule:evenodd;stroke:none"
         id="path4876"
         inkscape:connector-curvature="0" /><path
         d="m 104.77,14.051 h 0.023 l 0.012,0.004 h 0.007 l 0.012,0.004 h 0.012 l 0.012,0.003 h 0.015 l 0.012,0.004 h 0.016 l 0.007,0.004 h 0.008 l 0.012,0.004 h 0.008 l 0.008,0.004 h 0.007 l 0.008,0.004 h 0.008 l 0.023,0.008 h 0.008 L 105,14.094 c 0.133,0.039 0.234,0.062 0.312,0.062 0.161,0 0.176,-0.125 0.176,-0.16 0,-0.035 -0.015,-0.16 -0.176,-0.16 -0.078,0 -0.179,0.019 -0.312,0.059 -0.125,0.035 -0.168,0.039 -0.227,0.046 0.008,-0.144 0.036,-0.32 0.055,-0.445 0.02,-0.086 0.055,-0.297 0.055,-0.441 0,-0.125 -0.055,-0.192 -0.16,-0.192 -0.086,0 -0.161,0.047 -0.161,0.192 0,0.136 0.032,0.343 0.059,0.484 0.008,0.047 0.043,0.25 0.055,0.402 -0.063,-0.007 -0.106,-0.015 -0.231,-0.046 -0.133,-0.036 -0.23,-0.059 -0.308,-0.059 -0.16,0 -0.18,0.121 -0.18,0.16 0,0.031 0.02,0.16 0.18,0.16 0.078,0 0.175,-0.027 0.308,-0.062 0.125,-0.032 0.168,-0.039 0.231,-0.043 -0.008,0.101 -0.039,0.234 -0.063,0.32 -0.051,0.258 -0.051,0.285 -0.051,0.504 0,0.797 0.079,1.645 0.09,1.73 0.004,0.036 0.016,0.059 0.071,0.059 0.062,0 0.066,-0.023 0.074,-0.078 0,-0.008 0.031,-0.367 0.051,-0.621 0.019,-0.363 0.035,-0.727 0.035,-1.09 0,-0.219 0,-0.246 -0.055,-0.512 -0.012,-0.047 -0.047,-0.211 -0.055,-0.312 z"
         style="fill:#000000;fill-opacity:1;fill-rule:evenodd;stroke:none"
         id="path4878"
         inkscape:connector-curvature="0" /><g
         id="g4880"><path
           d="m 97.406,24.793 h 8.836 v 8.836 h -8.836 z"
           style="fill:#ffffff;fill-opacity:1;fill-rule:nonzero;stroke:#000000;stroke-width:0.61857498;stroke-linecap:butt;stroke-linejoin:miter;stroke-miterlimit:4;stroke-dasharray:none;stroke-opacity:1"
           id="path4882"
           inkscape:connector-curvature="0" /></g><path
         d="m 102.207,27.621 v -0.008 l 0.004,-0.004 v -0.015 l 0.004,-0.016 0.004,-0.012 v -0.015 l 0.011,-0.035 v -0.008 l 0.012,-0.024 v -0.007 l 0.004,-0.004 0.004,-0.008 v -0.004 l 0.004,-0.004 0.004,-0.008 0.004,-0.004 0.004,-0.007 0.007,-0.008 0.008,-0.004 h 0.004 l 0.008,-0.004 0.004,-0.004 h 0.004 l 0.008,-0.004 h 0.003 l 0.008,-0.004 h 0.008 l 0.004,-0.004 c 0.055,-0.015 0.25,-0.015 0.375,-0.015 0.598,0 0.863,0.027 0.863,0.488 0,0.086 -0.023,0.32 -0.047,0.473 -0.003,0.023 -0.019,0.097 -0.019,0.113 0,0.035 0.019,0.078 0.07,0.078 0.067,0 0.078,-0.047 0.09,-0.137 l 0.16,-1.031 c 0.008,-0.023 0.016,-0.082 0.016,-0.102 0,-0.062 -0.063,-0.062 -0.16,-0.062 h -3.289 c -0.141,0 -0.149,0.004 -0.188,0.117 l -0.355,1.043 c -0.012,0.012 -0.039,0.094 -0.039,0.106 0,0.035 0.031,0.066 0.074,0.066 0.058,0 0.062,-0.031 0.097,-0.125 0.321,-0.918 0.473,-1.023 1.352,-1.023 h 0.23 c 0.165,0 0.165,0.023 0.165,0.07 0,0.035 -0.016,0.105 -0.02,0.121 l -0.793,3.164 c -0.055,0.219 -0.074,0.285 -0.707,0.285 -0.215,0 -0.25,0 -0.25,0.113 0,0.071 0.066,0.071 0.102,0.071 0.16,0 0.328,-0.012 0.484,-0.012 0.168,0 0.34,-0.008 0.504,-0.008 0.168,0 0.332,0.008 0.492,0.008 0.172,0 0.352,0.012 0.516,0.012 0.058,0 0.129,0 0.129,-0.121 0,-0.063 -0.047,-0.063 -0.2,-0.063 -0.148,0 -0.226,0 -0.379,-0.012 -0.171,-0.019 -0.218,-0.035 -0.218,-0.128 0,-0.012 0,-0.04 0.019,-0.125 z"
         style="fill:#000000;fill-opacity:1;fill-rule:evenodd;stroke:none"
         id="path4884"
         inkscape:connector-curvature="0" /><path
         d="m 104.77,26.52 0.011,0.003 h 0.024 l 0.007,0.004 h 0.024 l 0.012,0.004 h 0.007 l 0.004,0.004 h 0.016 l 0.008,0.004 h 0.015 l 0.008,0.004 h 0.012 l 0.008,0.004 h 0.008 l 0.007,0.004 h 0.008 l 0.008,0.004 h 0.012 l 0.011,0.004 0.008,0.003 H 105 c 0.133,0.04 0.234,0.067 0.312,0.067 0.161,0 0.176,-0.125 0.176,-0.164 0,-0.031 -0.015,-0.16 -0.176,-0.16 -0.078,0 -0.179,0.023 -0.312,0.062 -0.125,0.031 -0.168,0.035 -0.227,0.043 0.008,-0.144 0.036,-0.316 0.055,-0.445 0.02,-0.086 0.055,-0.293 0.055,-0.438 0,-0.125 -0.055,-0.191 -0.16,-0.191 -0.086,0 -0.161,0.047 -0.161,0.191 0,0.133 0.032,0.344 0.059,0.485 0.008,0.043 0.043,0.246 0.055,0.398 -0.063,-0.008 -0.106,-0.012 -0.231,-0.043 -0.133,-0.039 -0.23,-0.062 -0.308,-0.062 -0.16,0 -0.18,0.125 -0.18,0.16 0,0.035 0.02,0.164 0.18,0.164 0.078,0 0.175,-0.027 0.308,-0.067 0.125,-0.027 0.168,-0.035 0.231,-0.042 -0.008,0.105 -0.039,0.234 -0.063,0.324 -0.051,0.254 -0.051,0.285 -0.051,0.5 0,0.797 0.079,1.648 0.09,1.73 0.004,0.039 0.016,0.063 0.071,0.063 0.062,0 0.066,-0.024 0.074,-0.082 0,-0.004 0.031,-0.367 0.051,-0.617 0.019,-0.364 0.035,-0.731 0.035,-1.094 0,-0.215 0,-0.246 -0.055,-0.508 -0.012,-0.047 -0.047,-0.211 -0.055,-0.316 z"
         style="fill:#000000;fill-opacity:1;fill-rule:evenodd;stroke:none"
         id="path4886"
         inkscape:connector-curvature="0" /><g
         id="g4888"><path
           d="m 116.809,41.684 c 0,0.836 -0.676,1.507 -1.508,1.507 -0.832,0 -1.508,-0.671 -1.508,-1.507 0,-0.84 0.676,-1.516 1.508,-1.516 0.832,0 1.508,0.676 1.508,1.516"
           style="fill:#000000;fill-opacity:1;fill-rule:nonzero;stroke:#000000;stroke-width:0.0677129;stroke-linecap:butt;stroke-linejoin:miter;stroke-miterlimit:4;stroke-dasharray:none;stroke-opacity:1"
           id="path4890"
           inkscape:connector-curvature="0" /></g><g
         id="g4892"><path
           d="m 119.504,29.211 c 0,2.32 -1.883,4.199 -4.203,4.199 -2.321,0 -4.203,-1.879 -4.203,-4.199 0,-2.324 1.882,-4.203 4.203,-4.203 2.32,0 4.203,1.879 4.203,4.203"
           style="fill:none;stroke:#000000;stroke-width:0.66196698;stroke-linecap:butt;stroke-linejoin:miter;stroke-miterlimit:4;stroke-dasharray:none;stroke-opacity:1"
           id="path4894"
           inkscape:connector-curvature="0" /></g><g
         id="g4896"><path
           d="M 115.301,43.16 V 25.215"
           style="fill:none;stroke:#000000;stroke-width:0.75;stroke-linecap:butt;stroke-linejoin:miter;stroke-miterlimit:4;stroke-dasharray:none;stroke-opacity:1"
           id="path4898"
           inkscape:connector-curvature="0" /></g><g
         id="g4900"><path
           d="m 129.5,16.734 c 0,-0.832 -0.676,-1.507 -1.512,-1.507 -0.828,0 -1.508,0.675 -1.508,1.507 0,0.844 0.68,1.516 1.508,1.516 0.836,0 1.512,-0.672 1.512,-1.516"
           style="fill:#000000;fill-opacity:1;fill-rule:nonzero;stroke:#000000;stroke-width:0.0677129;stroke-linecap:butt;stroke-linejoin:miter;stroke-miterlimit:4;stroke-dasharray:none;stroke-opacity:1"
           id="path4902"
           inkscape:connector-curvature="0" /></g><g
         id="g4904"><path
           d="m 132.195,41.684 c 0,-2.321 -1.883,-4.204 -4.203,-4.204 -2.324,0 -4.203,1.883 -4.203,4.204 0,2.32 1.879,4.199 4.203,4.199 2.32,0 4.203,-1.879 4.203,-4.199"
           style="fill:none;stroke:#000000;stroke-width:0.66196698;stroke-linecap:butt;stroke-linejoin:miter;stroke-miterlimit:4;stroke-dasharray:none;stroke-opacity:1"
           id="path4906"
           inkscape:connector-curvature="0" /></g><g
         id="g4908"><path
           d="M 127.992,17.422 V 46.07"
           style="fill:none;stroke:#000000;stroke-width:0.75;stroke-linecap:butt;stroke-linejoin:miter;stroke-miterlimit:4;stroke-dasharray:none;stroke-opacity:1"
           id="path4910"
           inkscape:connector-curvature="0" /></g><g
         id="g4912"><path
           d="m 141.102,29.215 c 0,0.832 -0.676,1.508 -1.512,1.508 -0.828,0 -1.508,-0.676 -1.508,-1.508 0,-0.844 0.68,-1.516 1.508,-1.516 0.836,0 1.512,0.672 1.512,1.516"
           style="fill:#000000;fill-opacity:1;fill-rule:nonzero;stroke:#000000;stroke-width:0.0677129;stroke-linecap:butt;stroke-linejoin:miter;stroke-miterlimit:4;stroke-dasharray:none;stroke-opacity:1"
           id="path4914"
           inkscape:connector-curvature="0" /></g><g
         id="g4916"><path
           d="m 143.797,16.738 c 0,2.321 -1.883,4.203 -4.203,4.203 -2.324,0 -4.203,-1.882 -4.203,-4.203 0,-2.32 1.879,-4.199 4.203,-4.199 2.32,0 4.203,1.879 4.203,4.199"
           style="fill:none;stroke:#000000;stroke-width:0.66196698;stroke-linecap:butt;stroke-linejoin:miter;stroke-miterlimit:4;stroke-dasharray:none;stroke-opacity:1"
           id="path4918"
           inkscape:connector-curvature="0" /></g><g
         id="g4920"><path
           d="M 139.594,30.789 V 12.844"
           style="fill:none;stroke:#000000;stroke-width:0.75;stroke-linecap:butt;stroke-linejoin:miter;stroke-miterlimit:4;stroke-dasharray:none;stroke-opacity:1"
           id="path4922"
           inkscape:connector-curvature="0" /></g><g
         id="g4924"><path
           d="m 135.711,37.262 h 8.836 v 8.836 h -8.836 z"
           style="fill:#ffffff;fill-opacity:1;fill-rule:nonzero;stroke:#000000;stroke-width:0.61857498;stroke-linecap:butt;stroke-linejoin:miter;stroke-miterlimit:4;stroke-dasharray:none;stroke-opacity:1"
           id="path4926"
           inkscape:connector-curvature="0" /></g><path
         d="m 141.918,40.121 0.008,-0.039 0.008,-0.031 0.007,-0.02 0.004,-0.015 0.004,-0.012 0.008,-0.016 0.004,-0.011 0.008,-0.012 0.004,-0.012 0.007,-0.012 0.012,-0.007 0.008,-0.012 0.012,-0.008 0.008,-0.008 0.015,-0.008 0.012,-0.007 0.015,-0.004 0.016,-0.008 0.039,-0.008 0.008,-0.004 h 0.012 l 0.011,-0.004 h 0.012 l 0.012,-0.004 h 0.012 l 0.011,-0.004 h 0.059 l 0.016,-0.003 h 0.14 c 0.156,0 0.199,0 0.199,-0.122 0,-0.062 -0.062,-0.062 -0.082,-0.062 -0.164,0 -0.586,0.02 -0.754,0.02 -0.171,0 -0.589,-0.02 -0.761,-0.02 -0.047,0 -0.11,0 -0.11,0.117 0,0.067 0.051,0.067 0.164,0.067 0.012,0 0.125,0 0.223,0.007 0.106,0.016 0.16,0.02 0.16,0.098 0,0.023 -0.004,0.035 -0.023,0.109 l -0.356,1.442 h -1.797 l 0.348,-1.387 c 0.055,-0.211 0.07,-0.269 0.496,-0.269 0.153,0 0.199,0 0.199,-0.122 0,-0.062 -0.062,-0.062 -0.082,-0.062 -0.164,0 -0.589,0.02 -0.754,0.02 -0.171,0 -0.589,-0.02 -0.761,-0.02 -0.047,0 -0.114,0 -0.114,0.117 0,0.067 0.055,0.067 0.165,0.067 0.015,0 0.125,0 0.226,0.007 0.106,0.016 0.16,0.02 0.16,0.098 0,0.023 -0.008,0.043 -0.023,0.109 l -0.789,3.168 c -0.059,0.231 -0.074,0.278 -0.539,0.278 -0.106,0 -0.16,0 -0.16,0.117 0,0.066 0.074,0.066 0.082,0.066 0.168,0 0.585,-0.019 0.75,-0.019 0.125,0 0.253,0.008 0.378,0.008 0.129,0 0.258,0.011 0.383,0.011 0.047,0 0.117,0 0.117,-0.117 0,-0.066 -0.054,-0.066 -0.164,-0.066 -0.218,0 -0.382,0 -0.382,-0.106 0,-0.035 0.011,-0.062 0.015,-0.097 l 0.403,-1.618 h 1.796 c -0.246,0.977 -0.382,1.539 -0.406,1.625 -0.058,0.192 -0.172,0.196 -0.535,0.196 -0.09,0 -0.141,0 -0.141,0.117 0,0.066 0.071,0.066 0.082,0.066 0.165,0 0.582,-0.019 0.747,-0.019 0.125,0 0.253,0.008 0.378,0.008 0.129,0 0.262,0.011 0.383,0.011 0.047,0 0.117,0 0.117,-0.117 0,-0.066 -0.05,-0.066 -0.164,-0.066 -0.218,0 -0.382,0 -0.382,-0.106 0,-0.035 0.011,-0.062 0.015,-0.097 z"
         style="fill:#000000;fill-opacity:1;fill-rule:evenodd;stroke:none"
         id="path4928"
         inkscape:connector-curvature="0" /></g></g></svg>