<?xml version="1.0" encoding="UTF-8" standalone="no"?>
<svg
   xmlns:dc="http://purl.org/dc/elements/1.1/"
   xmlns:cc="http://creativecommons.org/ns#"
   xmlns:rdf="http://www.w3.org/1999/02/22-rdf-syntax-ns#"
   xmlns:svg="http://www.w3.org/2000/svg"
   xmlns="http://www.w3.org/2000/svg"
   xmlns:sodipodi="http://sodipodi.sourceforge.net/DTD/sodipodi-0.dtd"
   xmlns:inkscape="http://www.inkscape.org/namespaces/inkscape"
   width="24.537043mm"
   height="3.2497125mm"
   viewBox="0 0 24.53704 3.2497124"
   version="1.1"
   id="svg2015"
   inkscape:version="0.92.5 (2060ec1f9f, 2020-04-08)"
   sodipodi:docname="zst.svg">
  <defs
     id="defs2009">
    <marker
       inkscape:isstock="true"
       style="overflow:visible"
       id="Arrow1Mend"
       refX="0"
       refY="0"
       orient="auto"
       inkscape:stockid="Arrow1Mend">
      <path
         transform="matrix(-0.4,0,0,-0.4,-4,0)"
         style="fill:#000000;fill-opacity:1;fill-rule:evenodd;stroke:#000000;stroke-width:1.00000003pt;stroke-opacity:1"
         d="M 0,0 5,-5 -12.5,0 5,5 Z"
         id="path1926"
         inkscape:connector-curvature="0" />
    </marker>
    <marker
       inkscape:isstock="true"
       style="overflow:visible"
       id="marker2180"
       refX="0"
       refY="0"
       orient="auto"
       inkscape:stockid="Arrow1Lend">
      <path
         transform="matrix(-0.8,0,0,-0.8,-10,0)"
         style="fill:#000000;fill-opacity:1;fill-rule:evenodd;stroke:#000000;stroke-width:1.00000003pt;stroke-opacity:1"
         d="M 0,0 5,-5 -12.5,0 5,5 Z"
         id="path1920"
         inkscape:connector-curvature="0" />
    </marker>
    <marker
       inkscape:stockid="Arrow1Send"
       orient="auto"
       refY="0"
       refX="0"
       id="Arrow1Send"
       style="overflow:visible"
       inkscape:isstock="true">
      <path
         id="path4042"
         d="M 0,0 5,-5 -12.5,0 5,5 Z"
         style="fill:#000000;fill-opacity:1;fill-rule:evenodd;stroke:#000000;stroke-width:1.00000003pt;stroke-opacity:1"
         transform="matrix(-0.2,0,0,-0.2,-1.2,0)"
         inkscape:connector-curvature="0" />
    </marker>
    <marker
       inkscape:stockid="Arrow1Lend"
       orient="auto"
       refY="0"
       refX="0"
       id="Arrow1Lend"
       style="overflow:visible"
       inkscape:isstock="true">
      <path
         id="path4030"
         d="M 0,0 5,-5 -12.5,0 5,5 Z"
         style="fill:#000000;fill-opacity:1;fill-rule:evenodd;stroke:#000000;stroke-width:1.00000003pt;stroke-opacity:1"
         transform="matrix(-0.8,0,0,-0.8,-10,0)"
         inkscape:connector-curvature="0" />
    </marker>
    <g
       id="g6878">
      <symbol
         overflow="visible"
         id="symbol4411"
         style="overflow:visible">
        <path
           style="stroke:none"
           d=""
           id="path6135"
           inkscape:connector-curvature="0" />
      </symbol>
      <symbol
         overflow="visible"
         id="symbol5772"
         style="overflow:visible">
        <path
           style="stroke:none"
           d="M 7.609375,-6.046875 C 7.703125,-6.40625 7.71875,-6.5 8.4375,-6.5 c 0.265625,0 0.34375,0 0.34375,-0.203125 0,-0.109375 -0.109375,-0.109375 -0.140625,-0.109375 -0.28125,0 -1,0.03125 -1.28125,0.03125 -0.28125,0 -0.984375,-0.03125 -1.28125,-0.03125 -0.078125,0 -0.1875,0 -0.1875,0.203125 0,0.109375 0.09375,0.109375 0.28125,0.109375 0.015625,0 0.203125,0 0.375,0.015625 0.1875,0.03125 0.265625,0.03125 0.265625,0.171875 0,0.03125 0,0.046875 -0.03125,0.1875 L 6.1875,-3.703125 H 3.140625 l 0.59375,-2.34375 C 3.8125,-6.40625 3.84375,-6.5 4.5625,-6.5 c 0.265625,0 0.34375,0 0.34375,-0.203125 0,-0.109375 -0.109375,-0.109375 -0.140625,-0.109375 -0.28125,0 -1,0.03125 -1.28125,0.03125 -0.28125,0 -0.984375,-0.03125 -1.28125,-0.03125 -0.078125,0 -0.1875,0 -0.1875,0.203125 0,0.109375 0.09375,0.109375 0.28125,0.109375 0.015625,0 0.203125,0 0.375,0.015625 0.171875,0.03125 0.265625,0.03125 0.265625,0.171875 0,0.03125 0,0.0625 -0.03125,0.1875 L 1.5625,-0.78125 c -0.09375,0.390625 -0.109375,0.46875 -0.90625,0.46875 -0.171875,0 -0.265625,0 -0.265625,0.203125 C 0.390625,0 0.515625,0 0.53125,0 0.8125,0 1.515625,-0.03125 1.796875,-0.03125 2,-0.03125 2.21875,-0.015625 2.4375,-0.015625 2.65625,-0.015625 2.875,0 3.078125,0 3.15625,0 3.28125,0 3.28125,-0.203125 3.28125,-0.3125 3.1875,-0.3125 3,-0.3125 c -0.375,0 -0.640625,0 -0.640625,-0.171875 0,-0.0625 0.015625,-0.109375 0.015625,-0.171875 l 0.6875,-2.734375 h 3.03125 c -0.40625,1.65625 -0.640625,2.609375 -0.6875,2.75 C 5.3125,-0.3125 5.125,-0.3125 4.5,-0.3125 c -0.140625,0 -0.234375,0 -0.234375,0.203125 C 4.265625,0 4.390625,0 4.40625,0 4.6875,0 5.390625,-0.03125 5.671875,-0.03125 5.875,-0.03125 6.09375,-0.015625 6.3125,-0.015625 6.53125,-0.015625 6.75,0 6.953125,0 7.03125,0 7.15625,0 7.15625,-0.203125 7.15625,-0.3125 7.0625,-0.3125 6.875,-0.3125 c -0.359375,0 -0.640625,0 -0.640625,-0.171875 0,-0.0625 0.015625,-0.109375 0.03125,-0.171875 z m 0,0"
           id="path1885"
           inkscape:connector-curvature="0" />
      </symbol>
    </g>
    <marker
       inkscape:isstock="true"
       style="overflow:visible"
       id="Arrow1Send-5"
       refX="0"
       refY="0"
       orient="auto"
       inkscape:stockid="Arrow1Send">
      <path
         transform="matrix(-0.2,0,0,-0.2,-1.2,0)"
         style="fill:#000000;fill-opacity:1;fill-rule:evenodd;stroke:#000000;stroke-width:1.00000003pt;stroke-opacity:1"
         d="M 0,0 5,-5 -12.5,0 5,5 Z"
         id="path4042-6"
         inkscape:connector-curvature="0" />
    </marker>
    <marker
       inkscape:stockid="Arrow1Mend"
       orient="auto"
       refY="0"
       refX="0"
       id="Arrow1Mend-8"
       style="overflow:visible"
       inkscape:isstock="true">
      <path
         id="path1926-4"
         d="M 0,0 5,-5 -12.5,0 5,5 Z"
         style="fill:#000000;fill-opacity:1;fill-rule:evenodd;stroke:#000000;stroke-width:1.00000003pt;stroke-opacity:1"
         transform="matrix(-0.4,0,0,-0.4,-4,0)"
         inkscape:connector-curvature="0" />
    </marker>
    <marker
       inkscape:isstock="true"
       style="overflow:visible"
       id="Arrow1Mend-9"
       refX="0"
       refY="0"
       orient="auto"
       inkscape:stockid="Arrow1Mend">
      <path
         transform="matrix(-0.4,0,0,-0.4,-4,0)"
         style="fill:#000000;fill-opacity:1;fill-rule:evenodd;stroke:#000000;stroke-width:1.00000003pt;stroke-opacity:1"
         d="M 0,0 5,-5 -12.5,0 5,5 Z"
         id="path6650-2"
         inkscape:connector-curvature="0" />
    </marker>
  </defs>
  <sodipodi:namedview
     id="base"
     pagecolor="#ffffff"
     bordercolor="#666666"
     borderopacity="1.0"
     inkscape:pageopacity="0.0"
     inkscape:pageshadow="2"
     inkscape:zoom="5.6"
     inkscape:cx="62.250903"
     inkscape:cy="1.2525742"
     inkscape:document-units="mm"
     inkscape:current-layer="layer1"
     showgrid="false"
     inkscape:window-width="1258"
     inkscape:window-height="1036"
     inkscape:window-x="658"
     inkscape:window-y="20"
     inkscape:window-maximized="0"
     fit-margin-top="0"
     fit-margin-left="0"
     fit-margin-right="0"
     fit-margin-bottom="0"
     inkscape:document-rotation="0"
     inkscape:snap-global="false" />
  <metadata
     id="metadata2012">
    <rdf:RDF>
      <cc:Work
         rdf:about="">
        <dc:format>image/svg+xml</dc:format>
        <dc:type
           rdf:resource="http://purl.org/dc/dcmitype/StillImage" />
        <dc:title />
      </cc:Work>
    </rdf:RDF>
  </metadata>
  <g
     inkscape:label="Layer 1"
     inkscape:groupmode="layer"
     id="layer1"
     transform="translate(-69.655385,-24.056766)"
     style="opacity:0.98000004">
    <g
       id="g8163"
       transform="translate(1.2075023)">
      <path
         inkscape:connector-curvature="0"
         id="path927-3-0-4-4"
         style="fill:none;stroke:#000000;stroke-width:0.13229167;stroke-linecap:butt;stroke-linejoin:miter;stroke-miterlimit:4;stroke-dasharray:none;stroke-opacity:1"
         d="m 77.070464,25.681622 h 7.291879" />
      <rect
         style="fill:#ffffff;fill-opacity:1;stroke:#000000;stroke-width:0.13229167;stroke-miterlimit:4;stroke-dasharray:none;stroke-dashoffset:0;stroke-opacity:1"
         id="rect3884-2-9-5-7-4-6-0-7-9-2-5"
         width="3.1174204"
         height="3.1174204"
         x="79.157692"
         y="24.122911" />
      <text
         id="text2144"
         y="26.377277"
         x="80.032188"
         style="font-style:normal;font-variant:normal;font-weight:normal;font-stretch:normal;font-size:2.03674555px;line-height:1.25;font-family:'Noto Mono';-inkscape-font-specification:'Noto Mono';letter-spacing:0px;word-spacing:0px;fill:#000000;fill-opacity:1;stroke:none;stroke-width:0.10911136"
         xml:space="preserve"><tspan
           style="font-style:italic;font-variant:normal;font-weight:normal;font-stretch:normal;font-family:cmr10;-inkscape-font-specification:cmr10;stroke-width:0.10911136"
           y="26.377277"
           x="80.032188"
           id="tspan2142"
           sodipodi:role="line">S</tspan></text>
    </g>
    <g
       id="g8157"
       transform="translate(0,0.14174347)">
      <path
         inkscape:connector-curvature="0"
         id="path927-3-0-4-4-7"
         style="opacity:0.98000004;fill:none;stroke:#000000;stroke-width:0.13229169;stroke-linecap:butt;stroke-linejoin:miter;stroke-miterlimit:4;stroke-dasharray:none;stroke-opacity:1"
         d="m 86.900548,25.539878 h 7.291879" />
      <g
         transform="translate(4.5752483,10.725074)"
         id="g8044">
        <rect
           y="13.256094"
           x="84.412529"
           height="3.1174204"
           width="3.1174204"
           id="rect3884-2-9-5-2-3-7-9-7-7"
           style="fill:#ffffff;fill-opacity:1;stroke:#000000;stroke-width:0.13229167;stroke-miterlimit:4;stroke-dasharray:none;stroke-dashoffset:0;stroke-opacity:1" />
        <path
           style="font-style:normal;font-variant:normal;font-weight:normal;font-stretch:normal;letter-spacing:normal;word-spacing:normal;text-anchor:start;fill:#000000;fill-opacity:1;fill-rule:evenodd;stroke:#000000;stroke-width:0;stroke-linecap:butt;stroke-linejoin:miter;stroke-miterlimit:10.43299961;stroke-dasharray:none;stroke-dashoffset:0;stroke-opacity:1"
           inkscape:connector-curvature="0"
           d="m 86.105462,14.254652 8.4e-4,-0.0029 4.2e-4,-0.0025 10e-4,-0.005 0.001,-0.005 0.001,-0.0046 10e-4,-0.0046 0.001,-0.0038 0.001,-0.0042 10e-4,-0.0038 0.001,-0.0034 0.001,-0.0034 10e-4,-0.0029 0.001,-0.0029 0.001,-0.0025 10e-4,-0.0025 0.001,-0.0025 0.001,-0.0021 10e-4,-0.0021 0.001,-0.0017 0.002,-0.0017 0.001,-0.0017 0.002,-0.0017 0.001,-0.0013 0.002,-0.0013 0.002,-0.0013 0.002,-8.39e-4 0.002,-0.0013 0.002,-8.39e-4 0.002,-8.38e-4 0.002,-4.2e-4 0.002,-8.38e-4 0.003,-4.19e-4 0.002,-8.39e-4 c 0.0189,-0.0046 0.088,-0.0046 0.13164,-0.0046 0.21088,0 0.30479,0.0088 0.30479,0.171887 0,0.0306 -0.008,0.112356 -0.0164,0.166857 -0.002,0.008 -0.007,0.03354 -0.007,0.03941 0,0.01258 0.007,0.02767 0.0247,0.02767 0.0239,0 0.0277,-0.01719 0.0314,-0.04863 l 0.0566,-0.36306 c 0.003,-0.0084 0.005,-0.02935 0.005,-0.03605 0,-0.02264 -0.021,-0.02264 -0.0566,-0.02264 h -1.15919 c -0.0507,0 -0.0524,0.0025 -0.0671,0.04192 l -0.12493,0.367252 c -0.003,0.0046 -0.0126,0.03354 -0.0126,0.03815 0,0.01258 0.0101,0.02306 0.0251,0.02306 0.021,0 0.0226,-0.01048 0.0352,-0.04402 0.11277,-0.323652 0.16686,-0.361802 0.47625,-0.361802 h 0.0813 c 0.0587,0 0.0587,0.0088 0.0587,0.02515 0,0.013 -0.006,0.03773 -0.008,0.0436 l -0.27963,1.115592 c -0.0189,0.07756 -0.0256,0.100198 -0.24902,0.100198 -0.0755,0 -0.0876,0 -0.0876,0.04025 0,0.02473 0.0226,0.02473 0.0352,0.02473 0.057,0 0.11529,-0.0038 0.17147,-0.0038 0.0587,0 0.11948,-0.0029 0.17776,-0.0029 0.0583,0 0.11654,0.0029 0.17356,0.0029 0.0604,0 0.12326,0.0038 0.18153,0.0038 0.021,0 0.0457,0 0.0457,-0.04192 0,-0.02306 -0.0164,-0.02306 -0.0709,-0.02306 -0.0524,0 -0.0792,0 -0.13332,-0.0038 -0.0612,-0.0067 -0.0776,-0.01258 -0.0776,-0.0457 0,-0.0029 0,-0.01342 0.008,-0.04402 z"
           id="path5129-9-8-5-6-5-8" />
      </g>
    </g>
    <g
       id="g8172"
       transform="translate(-7.843006,10.543377)">
      <g
         id="g8151">
        <path
           d="M 77.498391,15.138245 H 84.79027"
           style="opacity:0.98000004;fill:none;stroke:#000000;stroke-width:0.1322917;stroke-linecap:butt;stroke-linejoin:miter;stroke-miterlimit:4;stroke-dasharray:none;stroke-opacity:1"
           id="path927-3-0-4-4-7-9"
           inkscape:connector-curvature="0" />
        <g
           id="g8143"
           transform="translate(0,-0.0981376)">
          <rect
             style="fill:#ffffff;fill-opacity:1;stroke:#000000;stroke-width:0.13229167;stroke-miterlimit:4;stroke-dasharray:none;stroke-dashoffset:0;stroke-opacity:1"
             id="rect3884-2-9-5-2-3-7-9-7-7-7"
             width="3.1174204"
             height="3.1174204"
             x="79.49884"
             y="13.677672" />
          <g
             transform="matrix(9.2315962,0,0,9.2315962,68.002505,-205.75507)"
             id="g8080">
            <g
               style="font-style:normal;font-variant:normal;font-weight:normal;font-stretch:normal;letter-spacing:normal;word-spacing:normal;text-anchor:start;fill:none;fill-opacity:1;fill-rule:evenodd;stroke:#000000;stroke-linecap:butt;stroke-linejoin:miter;stroke-miterlimit:10.43299961;stroke-dasharray:none;stroke-dashoffset:0;stroke-opacity:1"
               id="content"
               transform="matrix(0.00471429,0,0,-0.00471429,-0.825,25.933754)"
               xml:space="preserve"
               stroke-miterlimit="10.433"
               font-style="normal"
               font-variant="normal"
               font-weight="normal"
               font-stretch="normal"
               font-size-adjust="none"
               letter-spacing="normal"
               word-spacing="normal"><path
                 style="fill:#000000;stroke-width:0"
                 inkscape:connector-curvature="0"
                 d="m 491.39,439.03 0.01,0.04 0.01,0.04 0.01,0.04 0.02,0.04 0.01,0.04 0.01,0.05 0.01,0.04 0.01,0.05 0.01,0.04 0.01,0.05 0.01,0.05 0.01,0.05 0.01,0.05 v 0.06 0.05 0.03 l 0.01,0.03 c 0,0.45 -0.25,0.45 -1.24,0.45 h -21.03 c -1.19,0 -1.25,-0.05 -1.55,-1 l -2.73,-8.97 c -0.11,-0.25 -0.16,-0.59 -0.16,-0.7 0,-0.05 0,-0.55 0.61,-0.55 0.44,0 0.55,0.36 0.64,0.5 1.89,5.89 4.49,9.17 12.25,9.17 h 8.13 l -27.85,-31.14 c 0,-0.04 -0.2,-0.75 -0.2,-0.89 0,-0.45 0.34,-0.45 1.25,-0.45 h 21.67 c 1.19,0 1.24,0.05 1.55,1 l 3.53,11 c 0.05,0.2 0.2,0.56 0.2,0.75 0,0.25 -0.2,0.55 -0.65,0.55 -0.44,0 -0.5,-0.19 -0.85,-1.24 -2.18,-6.78 -4.57,-10.37 -13.04,-10.37 h -8.53 z"
                 id="path8077" /></g>          </g>
        </g>
      </g>
    </g>
  </g>
</svg>
